<svg xmlns="http://www.w3.org/2000/svg" viewBox="0 0 1184 549"><defs><style>.cls-1{fill:#4d4d4d;}.cls-2{fill:#333;}.cls-3{font-size:58px;font-family:MyriadPro-Regular, Myriad Pro;}.cls-3,.cls-7{fill:#fff;}.cls-4{letter-spacing:0em;}.cls-5{letter-spacing:-0.01em;}.cls-6{letter-spacing:0em;}.cls-8,.cls-9{fill:none;stroke:#e9fffc;stroke-miterlimit:10;}.cls-8{stroke-width:6px;}.cls-9{stroke-width:2px;}</style></defs><g id="Layer_2" data-name="Layer 2"><g id="Layer_1-2" data-name="Layer 1"><rect class="cls-1" width="1184" height="549" rx="36.5"/><rect class="cls-2" width="549" height="549" rx="36.5"/><text class="cls-3" transform="translate(581 83.18)"><tspan class="cls-4">A</tspan><tspan x="35.32" y="0">l</tspan><tspan class="cls-5" x="49.01" y="0">t</tspan><tspan x="67.86" y="0">e</tspan><tspan class="cls-6" x="96.92" y="0">r</tspan><tspan x="116.12" y="0">ion-lang</tspan></text><path class="cls-7" d="M587.44,181,585.76,186H583.6l5.5-16.18h2.52L597.14,186h-2.23L593.18,181Zm5.31-1.63-1.59-4.66c-.36-1-.6-2-.84-2.95h-.05c-.24,1-.5,1.94-.81,2.93l-1.59,4.68Z"/><path class="cls-7" d="M599.37,169h2.11v17h-2.11Z"/><path class="cls-7" d="M607.58,171.09v3.33h3V176h-3v6.27c0,1.44.4,2.25,1.58,2.25a4.78,4.78,0,0,0,1.22-.14l.1,1.58a5.14,5.14,0,0,1-1.87.29,2.9,2.9,0,0,1-2.28-.89,4.28,4.28,0,0,1-.82-3V176h-1.8v-1.61h1.8v-2.78Z"/><path class="cls-7" d="M614,180.62a3.72,3.72,0,0,0,4,4,7.75,7.75,0,0,0,3.22-.6l.36,1.51a9.39,9.39,0,0,1-3.87.72c-3.57,0-5.71-2.35-5.71-5.86s2.07-6.26,5.45-6.26c3.79,0,4.8,3.34,4.8,5.47a9.22,9.22,0,0,1-.07,1Zm6.19-1.52c0-1.34-.55-3.43-2.93-3.43-2.13,0-3.07,2-3.24,3.43Z"/><path class="cls-7" d="M624.85,178.05c0-1.37,0-2.55-.09-3.63h1.85l.07,2.28h.09a3.49,3.49,0,0,1,3.22-2.54,2.2,2.2,0,0,1,.6.07v2a3.65,3.65,0,0,0-.72-.07,3,3,0,0,0-2.83,2.71,5.81,5.81,0,0,0-.1,1V186h-2.09Z"/><path class="cls-7" d="M635.15,171.16a1.25,1.25,0,0,1-1.34,1.3,1.26,1.26,0,0,1-1.28-1.3,1.29,1.29,0,0,1,1.32-1.32A1.25,1.25,0,0,1,635.15,171.16ZM632.8,186V174.42h2.11V186Z"/><path class="cls-7" d="M648.93,180.14c0,4.29-3,6.16-5.79,6.16-3.14,0-5.57-2.3-5.57-6,0-3.89,2.55-6.17,5.76-6.17S648.93,176.58,648.93,180.14Zm-9.22.12c0,2.54,1.46,4.46,3.53,4.46s3.53-1.9,3.53-4.51c0-2-1-4.47-3.48-4.47S639.71,178.05,639.71,180.26Z"/><path class="cls-7" d="M651.59,177.57c0-1.2,0-2.19-.1-3.15h1.88l.12,1.92h0a4.29,4.29,0,0,1,3.85-2.18c1.6,0,4.1,1,4.1,4.94V186h-2.11v-6.7c0-1.87-.7-3.43-2.69-3.43a3.12,3.12,0,0,0-3,3.15v7h-2.11Z"/><path class="cls-7" d="M672.35,171.16a1.31,1.31,0,0,1-2.62,0,1.29,1.29,0,0,1,1.32-1.32A1.25,1.25,0,0,1,672.35,171.16ZM670,186V174.42h2.11V186Z"/><path class="cls-7" d="M675.33,183.88a5.47,5.47,0,0,0,2.78.84c1.54,0,2.26-.77,2.26-1.73s-.6-1.56-2.16-2.13c-2.09-.75-3.08-1.9-3.08-3.29,0-1.87,1.52-3.41,4-3.41a5.85,5.85,0,0,1,2.86.72l-.53,1.54a4.52,4.52,0,0,0-2.38-.68c-1.24,0-1.94.72-1.94,1.59s.7,1.39,2.21,2c2,.76,3,1.77,3,3.5,0,2-1.59,3.48-4.35,3.48a6.6,6.6,0,0,1-3.26-.79Z"/><path class="cls-7" d="M696.64,186l-.17-1.46h-.07a4.33,4.33,0,0,1-3.55,1.72,3.31,3.31,0,0,1-3.56-3.33c0-2.81,2.5-4.35,7-4.32v-.24a2.4,2.4,0,0,0-2.64-2.69,5.89,5.89,0,0,0-3,.86l-.48-1.39a7.27,7.27,0,0,1,3.82-1c3.55,0,4.42,2.42,4.42,4.75v4.35a15.77,15.77,0,0,0,.19,2.78Zm-.31-5.93c-2.31-.05-4.92.36-4.92,2.62a1.86,1.86,0,0,0,2,2,2.9,2.9,0,0,0,2.81-1.94,2.31,2.31,0,0,0,.12-.67Z"/><path class="cls-7" d="M706.86,178.05c0-1.37,0-2.55-.1-3.63h1.85l.07,2.28h.1a3.48,3.48,0,0,1,3.22-2.54,2.2,2.2,0,0,1,.6.07v2a3.74,3.74,0,0,0-.72-.07,3,3,0,0,0-2.84,2.71,7.12,7.12,0,0,0-.09,1V186h-2.09Z"/><path class="cls-7" d="M715.65,180.62a3.72,3.72,0,0,0,4,4,7.79,7.79,0,0,0,3.22-.6l.36,1.51a9.39,9.39,0,0,1-3.87.72c-3.58,0-5.71-2.35-5.71-5.86s2.06-6.26,5.45-6.26c3.79,0,4.8,3.34,4.8,5.47a9.22,9.22,0,0,1-.07,1Zm6.19-1.52c0-1.34-.55-3.43-2.93-3.43-2.14,0-3.07,2-3.24,3.43Z"/><path class="cls-7" d="M727.31,174.42l2.28,6.53a28.64,28.64,0,0,1,.93,3h.08c.26-1,.6-1.92,1-3l2.26-6.53H736L731.48,186h-2l-4.42-11.62Z"/><path class="cls-7" d="M748.31,180.14c0,4.29-3,6.16-5.79,6.16-3.14,0-5.56-2.3-5.56-6,0-3.89,2.54-6.17,5.76-6.17S748.31,176.58,748.31,180.14Zm-9.22.12c0,2.54,1.47,4.46,3.53,4.46s3.53-1.9,3.53-4.51c0-2-1-4.47-3.48-4.47S739.09,178.05,739.09,180.26Z"/><path class="cls-7" d="M751,169h2.11v17H751Z"/><path class="cls-7" d="M766.36,182.87c0,1.2,0,2.26.09,3.17h-1.87l-.12-1.9h-.05a4.35,4.35,0,0,1-3.84,2.16c-1.82,0-4-1-4-5.08v-6.8h2.12v6.44c0,2.2.67,3.69,2.59,3.69a3,3,0,0,0,3-3v-7.13h2.12Z"/><path class="cls-7" d="M772.4,171.09v3.33h3V176h-3v6.27c0,1.44.41,2.25,1.59,2.25a4.78,4.78,0,0,0,1.22-.14l.1,1.58a5.14,5.14,0,0,1-1.87.29,2.9,2.9,0,0,1-2.28-.89,4.28,4.28,0,0,1-.82-3V176h-1.8v-1.61h1.8v-2.78Z"/><path class="cls-7" d="M780.16,171.16a1.31,1.31,0,0,1-2.62,0,1.28,1.28,0,0,1,1.32-1.32A1.25,1.25,0,0,1,780.16,171.16ZM777.8,186V174.42h2.12V186Z"/><path class="cls-7" d="M793.93,180.14c0,4.29-3,6.16-5.78,6.16-3.15,0-5.57-2.3-5.57-6,0-3.89,2.54-6.17,5.76-6.17S793.93,176.58,793.93,180.14Zm-9.22.12c0,2.54,1.47,4.46,3.53,4.46s3.53-1.9,3.53-4.51c0-2-1-4.47-3.48-4.47S784.71,178.05,784.71,180.26Z"/><path class="cls-7" d="M796.59,177.57c0-1.2,0-2.19-.09-3.15h1.87l.12,1.92h0a4.28,4.28,0,0,1,3.84-2.18c1.61,0,4.1,1,4.1,4.94V186h-2.11v-6.7c0-1.87-.69-3.43-2.69-3.43a3.08,3.08,0,0,0-3,3.15v7h-2.12Z"/><path class="cls-7" d="M816.35,186l-.17-1.46h-.07a4.34,4.34,0,0,1-3.56,1.72A3.3,3.3,0,0,1,809,183c0-2.81,2.5-4.35,7-4.32v-.24a2.4,2.4,0,0,0-2.64-2.69,5.89,5.89,0,0,0-3,.86l-.48-1.39a7.24,7.24,0,0,1,3.82-1c3.55,0,4.42,2.42,4.42,4.75v4.35a15.77,15.77,0,0,0,.19,2.78Zm-.31-5.93c-2.31-.05-4.93.36-4.93,2.62a1.87,1.87,0,0,0,2,2,2.9,2.9,0,0,0,2.81-1.94,2.31,2.31,0,0,0,.12-.67Z"/><path class="cls-7" d="M821.48,178.05c0-1.37,0-2.55-.09-3.63h1.84l.08,2.28h.09a3.48,3.48,0,0,1,3.22-2.54,2.2,2.2,0,0,1,.6.07v2a3.74,3.74,0,0,0-.72-.07,3,3,0,0,0-2.83,2.71,5.81,5.81,0,0,0-.1,1V186h-2.09Z"/><path class="cls-7" d="M830.7,174.42l2.54,6.87c.27.77.55,1.68.75,2.37h0c.22-.69.46-1.58.75-2.42l2.3-6.82h2.23l-3.16,8.28c-1.52,4-2.55,6-4,7.28a5.62,5.62,0,0,1-2.59,1.36l-.53-1.77a5.71,5.71,0,0,0,1.85-1,6.44,6.44,0,0,0,1.78-2.36,1.55,1.55,0,0,0,.16-.5,1.66,1.66,0,0,0-.14-.55l-4.3-10.71Z"/><path class="cls-7" d="M846,183.88a5.55,5.55,0,0,0,2.79.84c1.53,0,2.25-.77,2.25-1.73s-.6-1.56-2.16-2.13c-2.08-.75-3.07-1.9-3.07-3.29,0-1.87,1.51-3.41,4-3.41a5.85,5.85,0,0,1,2.86.72l-.53,1.54a4.52,4.52,0,0,0-2.38-.68c-1.25,0-1.94.72-1.94,1.59s.69,1.39,2.21,2c2,.76,3,1.77,3,3.5,0,2-1.58,3.48-4.34,3.48a6.6,6.6,0,0,1-3.26-.79Z"/><path class="cls-7" d="M856.59,174.42l2.55,6.87c.26.77.55,1.68.74,2.37h0c.22-.69.46-1.58.74-2.42l2.31-6.82h2.23L862,182.7c-1.51,4-2.54,6-4,7.28a5.67,5.67,0,0,1-2.59,1.36l-.53-1.77a5.81,5.81,0,0,0,1.85-1,6.54,6.54,0,0,0,1.77-2.36,1.39,1.39,0,0,0,.17-.5,2,2,0,0,0-.14-.55l-4.3-10.71Z"/><path class="cls-7" d="M866.7,183.88a5.51,5.51,0,0,0,2.78.84c1.54,0,2.26-.77,2.26-1.73s-.6-1.56-2.16-2.13c-2.09-.75-3.07-1.9-3.07-3.29,0-1.87,1.51-3.41,4-3.41a5.85,5.85,0,0,1,2.86.72l-.53,1.54a4.45,4.45,0,0,0-2.37-.68c-1.25,0-2,.72-2,1.59s.7,1.39,2.21,2c2,.76,3,1.77,3,3.5,0,2-1.59,3.48-4.35,3.48a6.63,6.63,0,0,1-3.26-.79Z"/><path class="cls-7" d="M879,171.09v3.33h3V176h-3v6.27c0,1.44.41,2.25,1.59,2.25a4.78,4.78,0,0,0,1.22-.14l.1,1.58a5.14,5.14,0,0,1-1.87.29,2.9,2.9,0,0,1-2.28-.89,4.28,4.28,0,0,1-.82-3V176h-1.8v-1.61H877v-2.78Z"/><path class="cls-7" d="M885.47,180.62a3.72,3.72,0,0,0,4,4,7.79,7.79,0,0,0,3.22-.6l.36,1.51a9.39,9.39,0,0,1-3.87.72c-3.58,0-5.71-2.35-5.71-5.86s2.06-6.26,5.45-6.26c3.79,0,4.8,3.34,4.8,5.47a9.22,9.22,0,0,1-.07,1Zm6.19-1.52c0-1.34-.55-3.43-2.93-3.43-2.14,0-3.07,2-3.24,3.43Z"/><path class="cls-7" d="M896.31,177.57c0-1.2,0-2.19-.09-3.15h1.84l.1,1.88h.07a4,4,0,0,1,3.65-2.14,3.44,3.44,0,0,1,3.29,2.33h.05a4.63,4.63,0,0,1,1.29-1.51,4,4,0,0,1,2.57-.82c1.54,0,3.82,1,3.82,5V186h-2.07v-6.58c0-2.23-.81-3.57-2.52-3.57a2.73,2.73,0,0,0-2.49,1.92,3.35,3.35,0,0,0-.17,1.05V186h-2.07v-7c0-1.85-.81-3.19-2.42-3.19a3.11,3.11,0,0,0-2.78,3.14v7h-2.07Z"/><path class="cls-7" d="M916,183.88a5.51,5.51,0,0,0,2.78.84c1.54,0,2.26-.77,2.26-1.73s-.6-1.56-2.16-2.13c-2.09-.75-3.07-1.9-3.07-3.29,0-1.87,1.51-3.41,4-3.41a5.84,5.84,0,0,1,2.85.72l-.53,1.54a4.45,4.45,0,0,0-2.37-.68c-1.25,0-1.95.72-1.95,1.59s.7,1.39,2.21,2c2,.76,3,1.77,3,3.5,0,2-1.58,3.48-4.34,3.48a6.64,6.64,0,0,1-3.27-.79Z"/><path class="cls-7" d="M930.92,178.22c0-1.49,0-2.69-.1-3.8h1.9l.1,2h0a4.58,4.58,0,0,1,4.13-2.26c2.81,0,4.92,2.38,4.92,5.9,0,4.18-2.54,6.24-5.28,6.24a4.06,4.06,0,0,1-3.57-1.82h0v6.31h-2.09Zm2.09,3.09a5.81,5.81,0,0,0,.09.87,3.27,3.27,0,0,0,3.17,2.47c2.23,0,3.53-1.83,3.53-4.49,0-2.33-1.22-4.32-3.46-4.32a3.37,3.37,0,0,0-3.19,2.62,3.44,3.44,0,0,0-.14.86Z"/><path class="cls-7" d="M944.58,178.05c0-1.37,0-2.55-.1-3.63h1.85l.07,2.28h.1a3.47,3.47,0,0,1,3.21-2.54,2.2,2.2,0,0,1,.6.07v2a3.65,3.65,0,0,0-.72-.07,3,3,0,0,0-2.83,2.71,5.81,5.81,0,0,0-.1,1V186h-2.08Z"/><path class="cls-7" d="M962.7,180.14c0,4.29-3,6.16-5.79,6.16-3.14,0-5.57-2.3-5.57-6,0-3.89,2.55-6.17,5.76-6.17S962.7,176.58,962.7,180.14Zm-9.22.12c0,2.54,1.46,4.46,3.53,4.46s3.53-1.9,3.53-4.51c0-2-1-4.47-3.48-4.47S953.48,178.05,953.48,180.26Z"/><path class="cls-7" d="M975.37,174.42c0,.84-.1,1.78-.1,3.2v6.74c0,2.66-.53,4.3-1.65,5.3a6.15,6.15,0,0,1-4.23,1.4,7.51,7.51,0,0,1-3.86-1l.52-1.61a6.56,6.56,0,0,0,3.41.91c2.16,0,3.75-1.13,3.75-4.06v-1.29h-.05a4.15,4.15,0,0,1-3.7,1.94c-2.88,0-4.94-2.45-4.94-5.66,0-3.94,2.57-6.17,5.23-6.17a3.88,3.88,0,0,1,3.63,2h0l.1-1.76ZM973.18,179a2.91,2.91,0,0,0-.12-1,3,3,0,0,0-2.95-2.24c-2,0-3.46,1.71-3.46,4.4,0,2.28,1.16,4.17,3.44,4.17a3.09,3.09,0,0,0,2.93-2.16,3.61,3.61,0,0,0,.16-1.12Z"/><path class="cls-7" d="M978.63,178.05c0-1.37,0-2.55-.09-3.63h1.84l.08,2.28h.09a3.48,3.48,0,0,1,3.22-2.54,2.2,2.2,0,0,1,.6.07v2a3.74,3.74,0,0,0-.72-.07,3,3,0,0,0-2.83,2.71,5.81,5.81,0,0,0-.1,1V186h-2.09Z"/><path class="cls-7" d="M992.79,186l-.17-1.46h-.07A4.32,4.32,0,0,1,989,186.3a3.3,3.3,0,0,1-3.55-3.33c0-2.81,2.49-4.35,7-4.32v-.24a2.39,2.39,0,0,0-2.64-2.69,5.83,5.83,0,0,0-3,.86l-.48-1.39a7.23,7.23,0,0,1,3.81-1c3.56,0,4.42,2.42,4.42,4.75v4.35a16.79,16.79,0,0,0,.19,2.78Zm-.31-5.93c-2.31-.05-4.92.36-4.92,2.62a1.86,1.86,0,0,0,2,2,2.9,2.9,0,0,0,2.81-1.94,2.31,2.31,0,0,0,.12-.67Z"/><path class="cls-7" d="M997.93,177.57c0-1.2,0-2.19-.1-3.15h1.85l.09,1.88h.08a4,4,0,0,1,3.64-2.14,3.43,3.43,0,0,1,3.29,2.33h.05a4.66,4.66,0,0,1,1.3-1.51,3.94,3.94,0,0,1,2.57-.82c1.53,0,3.81,1,3.81,5V186h-2.06v-6.58c0-2.23-.82-3.57-2.52-3.57a2.74,2.74,0,0,0-2.5,1.92,3.35,3.35,0,0,0-.17,1.05V186h-2.06v-7c0-1.85-.82-3.19-2.43-3.19A3.15,3.15,0,0,0,1000,179v7h-2.06Z"/><path class="cls-7" d="M1017.94,177.57c0-1.2,0-2.19-.09-3.15h1.84l.1,1.88h.07a4,4,0,0,1,3.65-2.14,3.45,3.45,0,0,1,3.29,2.33h0a4.63,4.63,0,0,1,1.29-1.51,4,4,0,0,1,2.57-.82c1.54,0,3.82,1,3.82,5V186h-2.07v-6.58c0-2.23-.81-3.57-2.52-3.57a2.73,2.73,0,0,0-2.49,1.92,3.35,3.35,0,0,0-.17,1.05V186h-2.07v-7c0-1.85-.81-3.19-2.42-3.19A3.11,3.11,0,0,0,1020,179v7h-2.07Z"/><path class="cls-7" d="M1040.31,171.16a1.31,1.31,0,0,1-2.62,0,1.29,1.29,0,0,1,1.32-1.32A1.25,1.25,0,0,1,1040.31,171.16ZM1038,186V174.42h2.11V186Z"/><path class="cls-7" d="M1043.57,177.57c0-1.2,0-2.19-.09-3.15h1.87l.12,1.92h0a4.27,4.27,0,0,1,3.84-2.18c1.61,0,4.1,1,4.1,4.94V186h-2.11v-6.7c0-1.87-.7-3.43-2.69-3.43a3.08,3.08,0,0,0-3,3.15v7h-2.12Z"/><path class="cls-7" d="M1066.9,174.42c-.05.84-.09,1.78-.09,3.2v6.74c0,2.66-.53,4.3-1.66,5.3a6.15,6.15,0,0,1-4.23,1.4,7.54,7.54,0,0,1-3.86-1l.53-1.61a6.56,6.56,0,0,0,3.41.91c2.16,0,3.74-1.13,3.74-4.06v-1.29h0A4.14,4.14,0,0,1,1061,186c-2.88,0-5-2.45-5-5.66,0-3.94,2.57-6.17,5.24-6.17a3.86,3.86,0,0,1,3.62,2h0l.09-1.76Zm-2.18,4.59a3.2,3.2,0,0,0-.12-1,3.05,3.05,0,0,0-2.95-2.24c-2,0-3.46,1.71-3.46,4.4,0,2.28,1.15,4.17,3.43,4.17a3.08,3.08,0,0,0,2.93-2.16,3.63,3.63,0,0,0,.17-1.12Z"/><path class="cls-7" d="M584.75,197.8h2.11v17h-2.11Z"/><path class="cls-7" d="M596.85,214.84l-.17-1.46h-.07a4.33,4.33,0,0,1-3.55,1.72,3.31,3.31,0,0,1-3.56-3.33c0-2.81,2.5-4.35,7-4.32v-.24a2.4,2.4,0,0,0-2.64-2.69,5.8,5.8,0,0,0-3,.86l-.48-1.39a7.27,7.27,0,0,1,3.82-1c3.55,0,4.42,2.42,4.42,4.75v4.35a15.77,15.77,0,0,0,.19,2.78Zm-.31-5.93c-2.31,0-4.92.36-4.92,2.62a1.86,1.86,0,0,0,2,2,2.9,2.9,0,0,0,2.81-1.94,2.31,2.31,0,0,0,.12-.67Z"/><path class="cls-7" d="M602,206.37c0-1.2,0-2.19-.09-3.15h1.87l.12,1.92h0a4.27,4.27,0,0,1,3.84-2.18c1.61,0,4.1,1,4.1,4.94v6.94h-2.11v-6.7c0-1.87-.69-3.43-2.69-3.43a3.08,3.08,0,0,0-3,3.15v7H602Z"/><path class="cls-7" d="M625.31,203.22c0,.84-.09,1.78-.09,3.2v6.74c0,2.66-.53,4.3-1.66,5.3a6.14,6.14,0,0,1-4.22,1.4,7.58,7.58,0,0,1-3.87-1l.53-1.61a6.56,6.56,0,0,0,3.41.91c2.16,0,3.74-1.13,3.74-4.06v-1.29h0a4.15,4.15,0,0,1-3.7,1.94c-2.88,0-4.95-2.45-4.95-5.66,0-3.94,2.57-6.17,5.24-6.17a3.86,3.86,0,0,1,3.62,2h0l.1-1.76Zm-2.18,4.59a2.91,2.91,0,0,0-.12-1,3,3,0,0,0-3-2.24c-2,0-3.46,1.71-3.46,4.4,0,2.28,1.15,4.17,3.43,4.17A3.07,3.07,0,0,0,623,211a3.63,3.63,0,0,0,.17-1.12Z"/><path class="cls-7" d="M638.44,211.67c0,1.2,0,2.26.1,3.17h-1.87l-.12-1.9h0a4.37,4.37,0,0,1-3.84,2.16c-1.83,0-4-1-4-5.08v-6.8h2.11v6.44c0,2.2.67,3.69,2.59,3.69a3,3,0,0,0,3-3v-7.13h2.11Z"/><path class="cls-7" d="M648.38,214.84l-.17-1.46h-.07a4.34,4.34,0,0,1-3.56,1.72,3.3,3.3,0,0,1-3.55-3.33c0-2.81,2.5-4.35,7-4.32v-.24a2.4,2.4,0,0,0-2.64-2.69,5.8,5.8,0,0,0-3,.86l-.48-1.39a7.24,7.24,0,0,1,3.82-1c3.55,0,4.42,2.42,4.42,4.75v4.35a15.77,15.77,0,0,0,.19,2.78Zm-.31-5.93c-2.31,0-4.93.36-4.93,2.62a1.87,1.87,0,0,0,2,2A2.9,2.9,0,0,0,648,211.6a2.31,2.31,0,0,0,.12-.67Z"/><path class="cls-7" d="M663.52,203.22c0,.84-.1,1.78-.1,3.2v6.74c0,2.66-.52,4.3-1.65,5.3a6.15,6.15,0,0,1-4.23,1.4,7.54,7.54,0,0,1-3.86-1l.53-1.61a6.56,6.56,0,0,0,3.41.91c2.16,0,3.74-1.13,3.74-4.06v-1.29h-.05a4.14,4.14,0,0,1-3.69,1.94c-2.88,0-5-2.45-5-5.66,0-3.94,2.57-6.17,5.23-6.17a3.88,3.88,0,0,1,3.63,2h.05l.09-1.76Zm-2.18,4.59a3.2,3.2,0,0,0-.12-1,3.05,3.05,0,0,0-3-2.24c-2,0-3.45,1.71-3.45,4.4,0,2.28,1.15,4.17,3.43,4.17a3.08,3.08,0,0,0,2.93-2.16,3.63,3.63,0,0,0,.17-1.12Z"/><path class="cls-7" d="M668.1,209.42a3.73,3.73,0,0,0,4,4,7.7,7.7,0,0,0,3.21-.6l.37,1.51a9.39,9.39,0,0,1-3.87.72c-3.58,0-5.71-2.35-5.71-5.86s2.06-6.26,5.45-6.26c3.79,0,4.8,3.33,4.8,5.47a6.86,6.86,0,0,1-.08,1Zm6.2-1.52c0-1.34-.56-3.43-2.93-3.43-2.14,0-3.07,2-3.24,3.43Z"/><path class="cls-7" d="M694.07,197.8v14c0,1,0,2.21.1,3h-1.9l-.09-2h0a4.3,4.3,0,0,1-4,2.28c-2.81,0-5-2.37-5-5.9,0-3.87,2.38-6.24,5.21-6.24a3.9,3.9,0,0,1,3.5,1.77H692V197.8ZM692,208a3.42,3.42,0,0,0-.1-.89,3.1,3.1,0,0,0-3-2.45c-2.19,0-3.49,1.93-3.49,4.49,0,2.36,1.16,4.3,3.44,4.3a3.17,3.17,0,0,0,3.09-2.52,3.34,3.34,0,0,0,.1-.91Z"/><path class="cls-7" d="M698.75,209.42a3.72,3.72,0,0,0,4,4,7.7,7.7,0,0,0,3.21-.6l.36,1.51a9.3,9.3,0,0,1-3.86.72c-3.58,0-5.71-2.35-5.71-5.86s2.06-6.26,5.44-6.26c3.8,0,4.8,3.33,4.8,5.47a7.17,7.17,0,0,1-.07,1Zm6.19-1.52c0-1.34-.55-3.43-2.92-3.43-2.14,0-3.08,2-3.24,3.43Z"/><path class="cls-7" d="M709.31,212.68a5.51,5.51,0,0,0,2.78.84c1.54,0,2.26-.77,2.26-1.73s-.6-1.56-2.16-2.13c-2.09-.75-3.07-1.9-3.07-3.29,0-1.87,1.51-3.41,4-3.41a5.73,5.73,0,0,1,2.85.72l-.52,1.53a4.63,4.63,0,0,0-2.38-.67c-1.25,0-2,.72-2,1.59s.7,1.39,2.21,2c2,.76,3,1.77,3,3.5,0,2-1.58,3.48-4.34,3.48a6.67,6.67,0,0,1-3.27-.79Z"/><path class="cls-7" d="M721.46,200a1.31,1.31,0,0,1-2.62,0,1.28,1.28,0,0,1,1.32-1.32A1.25,1.25,0,0,1,721.46,200Zm-2.36,14.88V203.22h2.11v11.62Z"/><path class="cls-7" d="M734.73,203.22c-.05.84-.1,1.78-.1,3.2v6.74c0,2.66-.53,4.3-1.65,5.3a6.15,6.15,0,0,1-4.23,1.4,7.51,7.51,0,0,1-3.86-1l.53-1.61a6.5,6.5,0,0,0,3.4.91c2.16,0,3.75-1.13,3.75-4.06v-1.29h-.05a4.15,4.15,0,0,1-3.7,1.94c-2.88,0-4.94-2.45-4.94-5.66,0-3.94,2.57-6.17,5.23-6.17a3.88,3.88,0,0,1,3.63,2h0l.1-1.76Zm-2.19,4.59a2.91,2.91,0,0,0-.12-1,3,3,0,0,0-2.95-2.24c-2,0-3.46,1.71-3.46,4.4,0,2.28,1.16,4.17,3.44,4.17a3.09,3.09,0,0,0,2.93-2.16,3.61,3.61,0,0,0,.16-1.12Z"/><path class="cls-7" d="M738,206.37c0-1.2,0-2.19-.09-3.15h1.87l.12,1.92h.05a4.27,4.27,0,0,1,3.84-2.18c1.6,0,4.1,1,4.1,4.94v6.94h-2.11v-6.7c0-1.87-.7-3.43-2.69-3.43a3.12,3.12,0,0,0-3,3.15v7H738Z"/><path class="cls-7" d="M752.49,209.42a3.72,3.72,0,0,0,4,4,7.75,7.75,0,0,0,3.22-.6l.36,1.51a9.39,9.39,0,0,1-3.87.72c-3.57,0-5.71-2.35-5.71-5.86s2.07-6.26,5.45-6.26c3.79,0,4.8,3.33,4.8,5.47a9.22,9.22,0,0,1-.07,1Zm6.19-1.52c0-1.34-.55-3.43-2.93-3.43-2.13,0-3.07,2-3.24,3.43Z"/><path class="cls-7" d="M773.37,197.8v14c0,1,0,2.21.09,3h-1.89l-.1-2h-.05a4.28,4.28,0,0,1-4,2.28c-2.8,0-5-2.37-5-5.9,0-3.87,2.37-6.24,5.2-6.24a3.9,3.9,0,0,1,3.51,1.77h0V197.8ZM771.26,208a3.92,3.92,0,0,0-.1-.89,3.11,3.11,0,0,0-3-2.45c-2.18,0-3.48,1.93-3.48,4.49,0,2.36,1.15,4.3,3.43,4.3a3.18,3.18,0,0,0,3.1-2.52,3.79,3.79,0,0,0,.1-.91Z"/><path class="cls-7" d="M782.17,214.84v-10h-1.63v-1.61h1.63v-.55a5.51,5.51,0,0,1,1.35-4.06,4.08,4.08,0,0,1,2.83-1.08,4.83,4.83,0,0,1,1.8.34l-.29,1.63a3.2,3.2,0,0,0-1.34-.26c-1.8,0-2.26,1.58-2.26,3.36v.62h2.81v1.61h-2.81v10Z"/><path class="cls-7" d="M799.17,208.94c0,4.29-3,6.16-5.79,6.16-3.14,0-5.57-2.3-5.57-6,0-3.89,2.55-6.17,5.77-6.17S799.17,205.38,799.17,208.94Zm-9.22.12c0,2.54,1.47,4.46,3.53,4.46S797,211.62,797,209c0-2-1-4.47-3.48-4.47S790,206.85,790,209.06Z"/><path class="cls-7" d="M801.83,206.85c0-1.37,0-2.55-.1-3.63h1.85l.07,2.28h.1A3.48,3.48,0,0,1,807,203a2.2,2.2,0,0,1,.6.07v2a3.82,3.82,0,0,0-.72-.07,3,3,0,0,0-2.84,2.71,7.12,7.12,0,0,0-.09,1v6.19h-2.09Z"/><path class="cls-7" d="M814.77,206.37c0-1.2,0-2.19-.1-3.15h1.85l.09,1.88h.08a4,4,0,0,1,3.64-2.14,3.43,3.43,0,0,1,3.29,2.33h0a4.81,4.81,0,0,1,1.3-1.52,4,4,0,0,1,2.57-.81c1.53,0,3.81,1,3.81,5v6.84h-2.06v-6.58c0-2.23-.82-3.57-2.52-3.57a2.74,2.74,0,0,0-2.5,1.92,3.35,3.35,0,0,0-.17,1v7.18H822v-7c0-1.85-.82-3.19-2.43-3.19a3.15,3.15,0,0,0-2.78,3.14v7h-2.06Z"/><path class="cls-7" d="M845.29,208.94c0,4.29-3,6.16-5.78,6.16-3.14,0-5.57-2.3-5.57-6,0-3.89,2.55-6.17,5.76-6.17S845.29,205.38,845.29,208.94Zm-9.21.12c0,2.54,1.46,4.46,3.53,4.46s3.52-1.9,3.52-4.51c0-2-1-4.47-3.48-4.47S836.08,206.85,836.08,209.06Z"/><path class="cls-7" d="M858,197.8v14c0,1,0,2.21.1,3h-1.9l-.1-2h0a4.3,4.3,0,0,1-4,2.28c-2.81,0-5-2.37-5-5.9,0-3.87,2.37-6.24,5.21-6.24a3.9,3.9,0,0,1,3.5,1.77h0V197.8ZM855.88,208a3.92,3.92,0,0,0-.1-.89,3.11,3.11,0,0,0-3-2.45c-2.18,0-3.48,1.93-3.48,4.49,0,2.36,1.16,4.3,3.44,4.3a3.17,3.17,0,0,0,3.09-2.52,3.79,3.79,0,0,0,.1-.91Z"/><path class="cls-7" d="M862.67,209.42a3.72,3.72,0,0,0,4,4,7.72,7.72,0,0,0,3.22-.6l.36,1.51a9.33,9.33,0,0,1-3.86.72c-3.58,0-5.72-2.35-5.72-5.86s2.07-6.26,5.45-6.26c3.8,0,4.8,3.33,4.8,5.47a7.17,7.17,0,0,1-.07,1Zm6.19-1.52c0-1.34-.55-3.43-2.93-3.43-2.13,0-3.07,2-3.24,3.43Z"/><path class="cls-7" d="M873.52,206.85c0-1.37,0-2.55-.1-3.63h1.85l.07,2.28h.1a3.48,3.48,0,0,1,3.21-2.54,2.2,2.2,0,0,1,.6.07v2a3.65,3.65,0,0,0-.72-.07,3,3,0,0,0-2.83,2.71,5.86,5.86,0,0,0-.09,1v6.19h-2.09Z"/><path class="cls-7" d="M881.46,206.37c0-1.2,0-2.19-.09-3.15h1.87l.12,1.92h0a4.27,4.27,0,0,1,3.84-2.18c1.6,0,4.1,1,4.1,4.94v6.94h-2.11v-6.7c0-1.87-.7-3.43-2.69-3.43a3.12,3.12,0,0,0-3,3.15v7h-2.11Z"/><path class="cls-7" d="M908.15,214.41a7.77,7.77,0,0,1-3.34.67c-3.5,0-5.78-2.38-5.78-5.93a5.91,5.91,0,0,1,6.24-6.17,7,7,0,0,1,2.93.6l-.48,1.63a5,5,0,0,0-2.45-.55c-2.66,0-4.1,2-4.1,4.4,0,2.68,1.72,4.34,4,4.34a5.9,5.9,0,0,0,2.59-.58Z"/><path class="cls-7" d="M910.62,206.85c0-1.37,0-2.55-.09-3.63h1.84l.08,2.28h.09a3.48,3.48,0,0,1,3.22-2.54,2.2,2.2,0,0,1,.6.07v2a3.74,3.74,0,0,0-.72-.07,3,3,0,0,0-2.83,2.71,5.81,5.81,0,0,0-.1,1v6.19h-2.09Z"/><path class="cls-7" d="M928.74,208.94c0,4.29-3,6.16-5.78,6.16-3.15,0-5.57-2.3-5.57-6,0-3.89,2.54-6.17,5.76-6.17S928.74,205.38,928.74,208.94Zm-9.22.12c0,2.54,1.47,4.46,3.53,4.46s3.53-1.9,3.53-4.51c0-2-1-4.47-3.48-4.47S919.52,206.85,919.52,209.06Z"/><path class="cls-7" d="M931.12,212.68a5.47,5.47,0,0,0,2.78.84c1.54,0,2.26-.77,2.26-1.73s-.6-1.56-2.16-2.13c-2.09-.75-3.08-1.9-3.08-3.29,0-1.87,1.52-3.41,4-3.41a5.74,5.74,0,0,1,2.86.72l-.53,1.53a4.63,4.63,0,0,0-2.38-.67c-1.24,0-1.94.72-1.94,1.59s.7,1.39,2.21,2c2,.76,3.05,1.77,3.05,3.5,0,2-1.59,3.48-4.35,3.48a6.6,6.6,0,0,1-3.26-.79Z"/><path class="cls-7" d="M940.62,212.68a5.51,5.51,0,0,0,2.78.84c1.54,0,2.26-.77,2.26-1.73s-.6-1.56-2.16-2.13c-2.09-.75-3.07-1.9-3.07-3.29,0-1.87,1.51-3.41,4-3.41a5.73,5.73,0,0,1,2.85.72l-.53,1.53a4.55,4.55,0,0,0-2.37-.67c-1.25,0-1.95.72-1.95,1.59s.7,1.39,2.21,2c2,.76,3.05,1.77,3.05,3.5,0,2-1.58,3.48-4.34,3.48a6.64,6.64,0,0,1-3.27-.79Z"/><path class="cls-7" d="M955.31,207.57v1.56h-5.93v-1.56Z"/><path class="cls-7" d="M957.78,207c0-1.49,0-2.69-.1-3.8h1.9l.1,2h0a4.59,4.59,0,0,1,4.13-2.25c2.81,0,4.92,2.37,4.92,5.9,0,4.18-2.54,6.24-5.28,6.24a4.06,4.06,0,0,1-3.57-1.82h0v6.31h-2.09Zm2.09,3.09a5.81,5.81,0,0,0,.09.87,3.27,3.27,0,0,0,3.17,2.47c2.24,0,3.53-1.83,3.53-4.49,0-2.33-1.22-4.32-3.45-4.32a3.37,3.37,0,0,0-3.2,2.62,3.44,3.44,0,0,0-.14.86Z"/><path class="cls-7" d="M971.44,197.8h2.11v17h-2.11Z"/><path class="cls-7" d="M983.53,214.84l-.17-1.46h-.07a4.32,4.32,0,0,1-3.55,1.72,3.3,3.3,0,0,1-3.55-3.33c0-2.81,2.49-4.35,7-4.32v-.24a2.39,2.39,0,0,0-2.64-2.69,5.74,5.74,0,0,0-3,.86L977,204a7.23,7.23,0,0,1,3.81-1c3.56,0,4.42,2.42,4.42,4.75v4.35a16.79,16.79,0,0,0,.19,2.78Zm-.31-5.93c-2.3,0-4.92.36-4.92,2.62a1.86,1.86,0,0,0,2,2,2.9,2.9,0,0,0,2.81-1.94,2.31,2.31,0,0,0,.12-.67Z"/><path class="cls-7" d="M991.12,199.89v3.33h3v1.61h-3v6.27c0,1.44.4,2.25,1.58,2.25a4.78,4.78,0,0,0,1.22-.14l.1,1.58a5.14,5.14,0,0,1-1.87.29,2.91,2.91,0,0,1-2.28-.89,4.28,4.28,0,0,1-.82-3v-6.34h-1.8v-1.61h1.8v-2.78Z"/><path class="cls-7" d="M996.73,214.84v-10H995.1v-1.61h1.63v-.55a5.47,5.47,0,0,1,1.35-4.06,4.06,4.06,0,0,1,2.83-1.08,4.87,4.87,0,0,1,1.8.34l-.29,1.63a3.2,3.2,0,0,0-1.34-.26c-1.8,0-2.26,1.58-2.26,3.36v.62h2.81v1.61h-2.81v10Z"/><path class="cls-7" d="M1013.72,208.94c0,4.29-3,6.16-5.78,6.16-3.14,0-5.57-2.3-5.57-6,0-3.89,2.55-6.17,5.76-6.17S1013.72,205.38,1013.72,208.94Zm-9.21.12c0,2.54,1.46,4.46,3.53,4.46s3.52-1.9,3.52-4.51c0-2-1-4.47-3.48-4.47S1004.51,206.85,1004.51,209.06Z"/><path class="cls-7" d="M1016.39,206.85c0-1.37,0-2.55-.1-3.63h1.85l.07,2.28h.1a3.48,3.48,0,0,1,3.21-2.54,2.2,2.2,0,0,1,.6.07v2a3.65,3.65,0,0,0-.72-.07,3,3,0,0,0-2.83,2.71,5.86,5.86,0,0,0-.09,1v6.19h-2.09Z"/><path class="cls-7" d="M1024.33,206.37c0-1.2,0-2.19-.09-3.15h1.84l.1,1.88h.07a4,4,0,0,1,3.65-2.14,3.45,3.45,0,0,1,3.29,2.33h0a4.78,4.78,0,0,1,1.29-1.52,4,4,0,0,1,2.57-.81c1.54,0,3.82,1,3.82,5v6.84h-2.07v-6.58c0-2.23-.81-3.57-2.52-3.57a2.73,2.73,0,0,0-2.49,1.92,3.35,3.35,0,0,0-.17,1v7.18h-2.07v-7c0-1.85-.81-3.19-2.42-3.19a3.11,3.11,0,0,0-2.78,3.14v7h-2.07Z"/><path class="cls-7" d="M1055.87,214.84l-.17-1.46h-.07a4.33,4.33,0,0,1-3.55,1.72,3.31,3.31,0,0,1-3.56-3.33c0-2.81,2.5-4.35,7-4.32v-.24a2.4,2.4,0,0,0-2.64-2.69,5.8,5.8,0,0,0-3,.86l-.48-1.39a7.24,7.24,0,0,1,3.82-1c3.55,0,4.42,2.42,4.42,4.75v4.35a15.77,15.77,0,0,0,.19,2.78Zm-.31-5.93c-2.31,0-4.93.36-4.93,2.62a1.87,1.87,0,0,0,2,2,2.9,2.9,0,0,0,2.81-1.94,2.31,2.31,0,0,0,.12-.67Z"/><path class="cls-7" d="M1061,207c0-1.49,0-2.69-.09-3.8h1.89l.1,2h0a4.57,4.57,0,0,1,4.13-2.25c2.8,0,4.92,2.37,4.92,5.9,0,4.18-2.55,6.24-5.28,6.24a4.07,4.07,0,0,1-3.58-1.82h-.05v6.31H1061Zm2.09,3.09a4.72,4.72,0,0,0,.1.87,3.25,3.25,0,0,0,3.17,2.47c2.23,0,3.52-1.83,3.52-4.49,0-2.33-1.22-4.32-3.45-4.32a3.36,3.36,0,0,0-3.19,2.62,3,3,0,0,0-.15.86Z"/><path class="cls-7" d="M1079.55,207.57v1.56h-5.92v-1.56Z"/><path class="cls-7" d="M584.75,235.82c0-1.49,0-2.69-.09-3.8h1.89l.1,2h.05a4.56,4.56,0,0,1,4.12-2.25c2.81,0,4.93,2.37,4.93,5.9,0,4.18-2.55,6.24-5.29,6.24a4.06,4.06,0,0,1-3.57-1.82h0v6.31h-2.09Zm2.09,3.09a4.72,4.72,0,0,0,.1.87,3.25,3.25,0,0,0,3.16,2.47c2.24,0,3.53-1.83,3.53-4.49,0-2.33-1.22-4.32-3.45-4.32a3.38,3.38,0,0,0-3.2,2.61,3.59,3.59,0,0,0-.14.87Z"/><path class="cls-7" d="M598.41,226.6h2.11v17h-2.11Z"/><path class="cls-7" d="M606.42,228.76a1.24,1.24,0,0,1-1.34,1.29,1.25,1.25,0,0,1-1.27-1.29,1.28,1.28,0,0,1,1.32-1.32A1.25,1.25,0,0,1,606.42,228.76Zm-2.35,14.88V232h2.11v11.62Z"/><path class="cls-7" d="M618,243.21a7.77,7.77,0,0,1-3.34.67c-3.5,0-5.78-2.38-5.78-5.93a5.91,5.91,0,0,1,6.24-6.17,7,7,0,0,1,2.93.6l-.48,1.63a5,5,0,0,0-2.45-.55c-2.67,0-4.11,2-4.11,4.4a4,4,0,0,0,4,4.34,5.9,5.9,0,0,0,2.59-.58Z"/><path class="cls-7" d="M626.87,243.64l-.17-1.46h-.07a4.32,4.32,0,0,1-3.55,1.72,3.3,3.3,0,0,1-3.55-3.33c0-2.81,2.49-4.35,7-4.32V236a2.39,2.39,0,0,0-2.64-2.69,5.74,5.74,0,0,0-3,.86l-.48-1.39a7.23,7.23,0,0,1,3.81-1c3.56,0,4.42,2.42,4.42,4.75v4.35a16.79,16.79,0,0,0,.19,2.78Zm-.31-5.93c-2.3-.05-4.92.36-4.92,2.62a1.86,1.86,0,0,0,2,2,2.9,2.9,0,0,0,2.81-1.94,2.31,2.31,0,0,0,.12-.67Z"/><path class="cls-7" d="M634.46,228.69V232h3v1.61h-3v6.27c0,1.44.4,2.25,1.58,2.25a4.78,4.78,0,0,0,1.22-.14l.1,1.58a5.14,5.14,0,0,1-1.87.29,2.9,2.9,0,0,1-2.28-.89,4.28,4.28,0,0,1-.82-3v-6.34h-1.8V232h1.8v-2.78Z"/><path class="cls-7" d="M642.21,228.76a1.31,1.31,0,0,1-2.62,0,1.28,1.28,0,0,1,1.32-1.32A1.25,1.25,0,0,1,642.21,228.76Zm-2.35,14.88V232H642v11.62Z"/><path class="cls-7" d="M656,237.74c0,4.29-3,6.16-5.78,6.16-3.14,0-5.57-2.3-5.57-6,0-3.89,2.55-6.17,5.76-6.17S656,234.18,656,237.74Zm-9.21.12c0,2.54,1.46,4.46,3.53,4.46s3.52-1.9,3.52-4.51c0-2-1-4.47-3.48-4.47S646.77,235.65,646.77,237.86Z"/><path class="cls-7" d="M658.65,235.17c0-1.2,0-2.19-.1-3.15h1.87l.12,1.92h.05a4.28,4.28,0,0,1,3.84-2.18c1.61,0,4.11,1,4.11,4.94v6.94h-2.12v-6.7c0-1.87-.69-3.43-2.68-3.43a3,3,0,0,0-2.84,2.16,3.19,3.19,0,0,0-.14,1v7h-2.11Z"/><path class="cls-7" d="M687.09,226.6v14c0,1,0,2.21.09,3h-1.89l-.1-2h-.05a4.28,4.28,0,0,1-4,2.28c-2.8,0-5-2.37-5-5.9,0-3.87,2.38-6.24,5.21-6.24a3.89,3.89,0,0,1,3.51,1.78H685V226.6ZM685,236.75a3.92,3.92,0,0,0-.1-.89,3.1,3.1,0,0,0-3-2.44c-2.18,0-3.48,1.91-3.48,4.48,0,2.35,1.15,4.3,3.43,4.3a3.18,3.18,0,0,0,3.1-2.52,3.79,3.79,0,0,0,.1-.91Z"/><path class="cls-7" d="M691.77,238.21a3.72,3.72,0,0,0,4,4,7.75,7.75,0,0,0,3.22-.6l.36,1.51a9.39,9.39,0,0,1-3.87.72c-3.57,0-5.71-2.35-5.71-5.86s2.07-6.26,5.45-6.26c3.79,0,4.8,3.33,4.8,5.47a8.79,8.79,0,0,1-.07,1ZM698,236.7c0-1.34-.55-3.43-2.93-3.43-2.13,0-3.07,2-3.24,3.43Z"/><path class="cls-7" d="M703.43,232l2.28,6.53c.38,1.06.7,2,.94,3h.07c.26-1,.6-1.92,1-3L710,232h2.21l-4.56,11.62h-2L701.17,232Z"/><path class="cls-7" d="M715.09,238.21a3.73,3.73,0,0,0,4,4,7.7,7.7,0,0,0,3.21-.6l.37,1.51a9.39,9.39,0,0,1-3.87.72c-3.58,0-5.71-2.35-5.71-5.86s2.06-6.26,5.45-6.26c3.79,0,4.8,3.33,4.8,5.47a6.57,6.57,0,0,1-.08,1Zm6.2-1.51c0-1.34-.56-3.43-2.93-3.43-2.14,0-3.07,2-3.24,3.43Z"/><path class="cls-7" d="M725.94,226.6h2.11v17h-2.11Z"/><path class="cls-7" d="M742.12,237.74c0,4.29-3,6.16-5.79,6.16-3.14,0-5.56-2.3-5.56-6,0-3.89,2.54-6.17,5.76-6.17S742.12,234.18,742.12,237.74Zm-9.22.12c0,2.54,1.47,4.46,3.53,4.46s3.53-1.9,3.53-4.51c0-2-1-4.47-3.48-4.47S732.9,235.65,732.9,237.86Z"/><path class="cls-7" d="M744.78,235.82c0-1.49,0-2.69-.09-3.8h1.89l.1,2h.05a4.56,4.56,0,0,1,4.12-2.25c2.81,0,4.92,2.37,4.92,5.9,0,4.18-2.54,6.24-5.28,6.24a4.06,4.06,0,0,1-3.57-1.82h0v6.31h-2.09Zm2.09,3.09a4.72,4.72,0,0,0,.1.87,3.25,3.25,0,0,0,3.16,2.47c2.24,0,3.53-1.83,3.53-4.49,0-2.33-1.22-4.32-3.45-4.32a3.38,3.38,0,0,0-3.2,2.61,3.59,3.59,0,0,0-.14.87Z"/><path class="cls-7" d="M758.44,235.17c0-1.2,0-2.19-.1-3.15h1.85l.1,1.87h.07a4,4,0,0,1,3.64-2.13,3.43,3.43,0,0,1,3.29,2.33h.05a4.81,4.81,0,0,1,1.3-1.52,4,4,0,0,1,2.57-.81c1.53,0,3.81,1,3.81,5v6.84H773v-6.58c0-2.23-.82-3.57-2.52-3.57a2.74,2.74,0,0,0-2.5,1.92,3.66,3.66,0,0,0-.17,1.05v7.18h-2.06v-7c0-1.85-.82-3.19-2.42-3.19a3.15,3.15,0,0,0-2.79,3.14v7h-2.06Z"/><path class="cls-7" d="M779.63,238.21a3.72,3.72,0,0,0,4,4,7.75,7.75,0,0,0,3.22-.6l.36,1.51a9.33,9.33,0,0,1-3.86.72c-3.58,0-5.72-2.35-5.72-5.86s2.07-6.26,5.45-6.26c3.79,0,4.8,3.33,4.8,5.47a8.79,8.79,0,0,1-.07,1Zm6.19-1.51c0-1.34-.55-3.43-2.93-3.43-2.13,0-3.07,2-3.24,3.43Z"/><path class="cls-7" d="M790.48,235.17c0-1.2,0-2.19-.1-3.15h1.87l.12,1.92h0a4.28,4.28,0,0,1,3.84-2.18c1.61,0,4.1,1,4.1,4.94v6.94h-2.11v-6.7c0-1.87-.69-3.43-2.69-3.43a3,3,0,0,0-2.83,2.16,3.19,3.19,0,0,0-.14,1v7h-2.11Z"/><path class="cls-7" d="M806.24,228.69V232h3v1.61h-3v6.27c0,1.44.41,2.25,1.59,2.25a4.78,4.78,0,0,0,1.22-.14l.1,1.58a5.14,5.14,0,0,1-1.87.29A2.9,2.9,0,0,1,805,243a4.28,4.28,0,0,1-.82-3v-6.34h-1.8V232h1.8v-2.78Z"/><path class="cls-7" d="M811.07,242.39a1.42,1.42,0,0,1,1.44-1.51,1.51,1.51,0,1,1-1.44,1.51Z"/><path class="cls-7" d="M823.79,227.46v16.18H821.7V227.46Z"/><path class="cls-7" d="M830.29,228.69V232h3v1.61h-3v6.27c0,1.44.41,2.25,1.59,2.25a4.84,4.84,0,0,0,1.22-.14l.09,1.58a5.06,5.06,0,0,1-1.87.29A2.93,2.93,0,0,1,829,243a4.28,4.28,0,0,1-.81-3v-6.34h-1.8V232h1.8v-2.78Z"/><path class="cls-7" d="M849.06,243.21a7.77,7.77,0,0,1-3.34.67c-3.5,0-5.78-2.38-5.78-5.93a5.91,5.91,0,0,1,6.24-6.17,7,7,0,0,1,2.93.6l-.48,1.63a5,5,0,0,0-2.45-.55c-2.67,0-4.11,2-4.11,4.4a4,4,0,0,0,4,4.34,5.9,5.9,0,0,0,2.59-.58Z"/><path class="cls-7" d="M861.9,237.74c0,4.29-3,6.16-5.78,6.16-3.15,0-5.57-2.3-5.57-6,0-3.89,2.54-6.17,5.76-6.17S861.9,234.18,861.9,237.74Zm-9.22.12c0,2.54,1.47,4.46,3.53,4.46s3.53-1.9,3.53-4.51c0-2-1-4.47-3.48-4.47S852.68,235.65,852.68,237.86Z"/><path class="cls-7" d="M864.56,235.17c0-1.2,0-2.19-.09-3.15h1.84l.1,1.87h.07a4,4,0,0,1,3.65-2.13,3.44,3.44,0,0,1,3.29,2.33h.05a4.78,4.78,0,0,1,1.29-1.52,4,4,0,0,1,2.57-.81c1.54,0,3.82,1,3.82,5v6.84h-2.07v-6.58c0-2.23-.81-3.57-2.52-3.57a2.73,2.73,0,0,0-2.49,1.92,3.35,3.35,0,0,0-.17,1.05v7.18h-2.07v-7c0-1.85-.81-3.19-2.42-3.19a3.11,3.11,0,0,0-2.78,3.14v7h-2.07Z"/><path class="cls-7" d="M884.48,243.64c0-.79.1-2,.1-3v-14h2.09v7.29h0a4.34,4.34,0,0,1,4-2.13c2.88,0,4.93,2.4,4.9,5.93,0,4.15-2.61,6.21-5.21,6.21a4.14,4.14,0,0,1-3.89-2.18h-.07l-.09,1.92Zm2.19-4.66a3.78,3.78,0,0,0,.09.77,3.25,3.25,0,0,0,3.17,2.47c2.21,0,3.53-1.8,3.53-4.46,0-2.33-1.2-4.32-3.46-4.32a3.35,3.35,0,0,0-3.21,2.59,4.06,4.06,0,0,0-.12.87Z"/><path class="cls-7" d="M900.59,228.76a1.31,1.31,0,0,1-2.62,0,1.28,1.28,0,0,1,1.32-1.32A1.25,1.25,0,0,1,900.59,228.76Zm-2.36,14.88V232h2.12v11.62Z"/><path class="cls-7" d="M903.85,235.17c0-1.2,0-2.19-.1-3.15h1.88l.12,1.92h0a4.28,4.28,0,0,1,3.84-2.18c1.61,0,4.11,1,4.11,4.94v6.94h-2.11v-6.7c0-1.87-.7-3.43-2.69-3.43a3,3,0,0,0-2.83,2.16,2.9,2.9,0,0,0-.15,1v7h-2.11Z"/><path class="cls-7" d="M918.35,238.21a3.72,3.72,0,0,0,4,4,7.79,7.79,0,0,0,3.22-.6l.36,1.51a9.39,9.39,0,0,1-3.87.72c-3.57,0-5.71-2.35-5.71-5.86s2.06-6.26,5.45-6.26c3.79,0,4.8,3.33,4.8,5.47a8.79,8.79,0,0,1-.07,1Zm6.19-1.51c0-1.34-.55-3.43-2.93-3.43-2.14,0-3.07,2-3.24,3.43Z"/><path class="cls-7" d="M928.91,241.48a5.47,5.47,0,0,0,2.78.84c1.54,0,2.26-.77,2.26-1.73s-.6-1.56-2.16-2.13c-2.09-.75-3.08-1.9-3.08-3.29,0-1.88,1.52-3.41,4-3.41a5.74,5.74,0,0,1,2.86.72l-.53,1.53a4.63,4.63,0,0,0-2.38-.67c-1.24,0-1.94.72-1.94,1.59s.7,1.39,2.21,2c2,.76,3,1.77,3,3.5,0,2-1.59,3.48-4.35,3.48a6.6,6.6,0,0,1-3.26-.79Z"/><path class="cls-7" d="M946.33,228.69V232h3v1.61h-3v6.27c0,1.44.41,2.25,1.58,2.25a4.87,4.87,0,0,0,1.23-.14l.09,1.58a5.06,5.06,0,0,1-1.87.29,2.93,2.93,0,0,1-2.28-.89,4.28,4.28,0,0,1-.81-3v-6.34h-1.81V232h1.81v-2.78Z"/><path class="cls-7" d="M951.73,226.6h2.11v7.25h0a3.86,3.86,0,0,1,1.51-1.49,4.37,4.37,0,0,1,2.16-.6c1.56,0,4.06,1,4.06,5v6.91h-2.11V237c0-1.88-.7-3.46-2.69-3.46a3,3,0,0,0-2.83,2.11,2.56,2.56,0,0,0-.15,1v7h-2.11Z"/><path class="cls-7" d="M966.23,238.21a3.72,3.72,0,0,0,4,4,7.79,7.79,0,0,0,3.22-.6l.36,1.51a9.39,9.39,0,0,1-3.87.72c-3.58,0-5.71-2.35-5.71-5.86s2.06-6.26,5.45-6.26c3.79,0,4.8,3.33,4.8,5.47a8.79,8.79,0,0,1-.07,1Zm6.19-1.51c0-1.34-.55-3.43-2.93-3.43-2.14,0-3.07,2-3.24,3.43Z"/><path class="cls-7" d="M982.16,235.82c0-1.49,0-2.69-.1-3.8H984l.1,2h0a4.59,4.59,0,0,1,4.13-2.25c2.81,0,4.92,2.37,4.92,5.9,0,4.18-2.54,6.24-5.28,6.24a4.06,4.06,0,0,1-3.57-1.82h0v6.31h-2.09Zm2.09,3.09a5.81,5.81,0,0,0,.09.87,3.27,3.27,0,0,0,3.17,2.47c2.24,0,3.53-1.83,3.53-4.49,0-2.33-1.22-4.32-3.46-4.32a3.37,3.37,0,0,0-3.19,2.61,3.59,3.59,0,0,0-.14.87Z"/><path class="cls-7" d="M997,238.21a3.73,3.73,0,0,0,4,4,7.7,7.7,0,0,0,3.21-.6l.36,1.51a9.3,9.3,0,0,1-3.86.72c-3.58,0-5.71-2.35-5.71-5.86s2.06-6.26,5.44-6.26c3.8,0,4.8,3.33,4.8,5.47a6.87,6.87,0,0,1-.07,1Zm6.19-1.51c0-1.34-.55-3.43-2.92-3.43-2.14,0-3.08,2-3.24,3.43Z"/><path class="cls-7" d="M1007.84,235.65c0-1.37,0-2.55-.1-3.63h1.85l.07,2.28h.1a3.48,3.48,0,0,1,3.22-2.54,2.25,2.25,0,0,1,.6.07v2a3.14,3.14,0,0,0-.72-.07,3,3,0,0,0-2.84,2.71,7.12,7.12,0,0,0-.09,1v6.19h-2.09Z"/><path class="cls-7" d="M1016.62,243.64v-10H1015V232h1.63v-.55a5.47,5.47,0,0,1,1.35-4.06,4.06,4.06,0,0,1,2.83-1.08,4.87,4.87,0,0,1,1.8.34l-.29,1.63A3.2,3.2,0,0,0,1021,228c-1.8,0-2.26,1.58-2.26,3.36V232h2.81v1.61h-2.81v10Z"/><path class="cls-7" d="M1033.62,237.74c0,4.29-3,6.16-5.79,6.16-3.14,0-5.57-2.3-5.57-6,0-3.89,2.55-6.17,5.76-6.17S1033.62,234.18,1033.62,237.74Zm-9.22.12c0,2.54,1.46,4.46,3.53,4.46s3.53-1.9,3.53-4.51c0-2-1-4.47-3.48-4.47S1024.4,235.65,1024.4,237.86Z"/><path class="cls-7" d="M1036.28,235.65c0-1.37,0-2.55-.1-3.63H1038l.07,2.28h.1a3.48,3.48,0,0,1,3.22-2.54,2.12,2.12,0,0,1,.59.07v2a3,3,0,0,0-.72-.07,3,3,0,0,0-2.83,2.71,7.12,7.12,0,0,0-.09,1v6.19h-2.09Z"/><path class="cls-7" d="M1049,236.37v1.56h-5.93v-1.56Z"/><path class="cls-7" d="M584.75,264c0-1.2,0-2.19-.09-3.15h1.84l.1,1.87h.07a4,4,0,0,1,3.65-2.13,3.45,3.45,0,0,1,3.29,2.33h0a4.78,4.78,0,0,1,1.29-1.52,4,4,0,0,1,2.57-.81c1.54,0,3.82,1,3.82,5v6.84h-2.07v-6.58c0-2.23-.81-3.57-2.52-3.57a2.72,2.72,0,0,0-2.49,1.92,3.35,3.35,0,0,0-.17,1.05v7.18H592v-7c0-1.85-.81-3.19-2.42-3.19a3.11,3.11,0,0,0-2.78,3.14v7h-2.07Z"/><path class="cls-7" d="M611.2,272.44,611,271H611a4.33,4.33,0,0,1-3.55,1.72,3.3,3.3,0,0,1-3.55-3.33c0-2.81,2.49-4.35,7-4.32v-.24a2.39,2.39,0,0,0-2.64-2.69,5.83,5.83,0,0,0-3,.86l-.48-1.39a7.23,7.23,0,0,1,3.81-1c3.55,0,4.42,2.42,4.42,4.75v4.35a16.79,16.79,0,0,0,.19,2.78Zm-.31-5.93c-2.31-.05-4.92.36-4.92,2.62a1.86,1.86,0,0,0,2,2,2.9,2.9,0,0,0,2.81-1.94,2.31,2.31,0,0,0,.12-.67Z"/><path class="cls-7" d="M616.34,264c0-1.2,0-2.19-.1-3.15h1.87l.12,1.92h0a4.28,4.28,0,0,1,3.84-2.18c1.61,0,4.1,1,4.1,4.94v6.94h-2.11v-6.7c0-1.87-.69-3.43-2.69-3.43a3,3,0,0,0-2.83,2.16,3.19,3.19,0,0,0-.14,1v7h-2.11Z"/><path class="cls-7" d="M637.94,272a7.81,7.81,0,0,1-3.34.67c-3.5,0-5.78-2.38-5.78-5.93a5.9,5.9,0,0,1,6.24-6.17,7.08,7.08,0,0,1,2.93.6l-.49,1.63a5,5,0,0,0-2.44-.55c-2.67,0-4.11,2-4.11,4.4a4,4,0,0,0,4,4.34,5.93,5.93,0,0,0,2.59-.58Z"/><path class="cls-7" d="M641.44,267a3.73,3.73,0,0,0,4,4,7.7,7.7,0,0,0,3.21-.6L649,272a9.3,9.3,0,0,1-3.86.72c-3.58,0-5.72-2.35-5.72-5.86s2.07-6.26,5.45-6.26c3.8,0,4.8,3.33,4.8,5.47a6.87,6.87,0,0,1-.07,1Zm6.19-1.51c0-1.34-.55-3.43-2.92-3.43-2.14,0-3.08,2-3.25,3.43Z"/><path class="cls-7" d="M667.89,266.54c0,4.29-3,6.16-5.79,6.16-3.14,0-5.56-2.3-5.56-6,0-3.89,2.54-6.17,5.76-6.17S667.89,263,667.89,266.54Zm-9.22.12c0,2.54,1.47,4.46,3.53,4.46s3.53-1.9,3.53-4.51c0-2-1-4.47-3.48-4.47S658.67,264.45,658.67,266.66Z"/><path class="cls-7" d="M670.77,272.44v-10h-1.63v-1.61h1.63v-.55a5.51,5.51,0,0,1,1.34-4.06,4.08,4.08,0,0,1,2.83-1.08,4.79,4.79,0,0,1,1.8.34l-.28,1.63a3.28,3.28,0,0,0-1.35-.26c-1.8,0-2.25,1.58-2.25,3.36v.62h2.8v1.61h-2.8v10Z"/><path class="cls-7" d="M682.65,264c0-1.2,0-2.19-.1-3.15h1.87l.12,1.92h.05a4.28,4.28,0,0,1,3.84-2.18c1.61,0,4.11,1,4.11,4.94v6.94h-2.12v-6.7c0-1.87-.69-3.43-2.68-3.43a3,3,0,0,0-2.84,2.16,3.19,3.19,0,0,0-.14,1v7h-2.11Z"/><path class="cls-7" d="M702.4,272.44l-.17-1.46h-.07a4.33,4.33,0,0,1-3.55,1.72,3.3,3.3,0,0,1-3.55-3.33c0-2.81,2.49-4.35,7-4.32v-.24a2.39,2.39,0,0,0-2.64-2.69,5.83,5.83,0,0,0-3,.86l-.48-1.39a7.23,7.23,0,0,1,3.81-1c3.55,0,4.42,2.42,4.42,4.75v4.35a16.79,16.79,0,0,0,.19,2.78Zm-.31-5.93c-2.31-.05-4.92.36-4.92,2.62a1.86,1.86,0,0,0,2,2A2.9,2.9,0,0,0,702,269.2a2.31,2.31,0,0,0,.12-.67Z"/><path class="cls-7" d="M710,257.49v3.33h3v1.61h-3v6.27c0,1.43.41,2.25,1.59,2.25a4.78,4.78,0,0,0,1.22-.14l.1,1.58a5.14,5.14,0,0,1-1.87.29,2.9,2.9,0,0,1-2.28-.89,4.3,4.3,0,0,1-.82-3v-6.34h-1.8v-1.61h1.8V258Z"/><path class="cls-7" d="M717.74,257.56a1.31,1.31,0,0,1-2.62,0,1.28,1.28,0,0,1,1.32-1.32A1.25,1.25,0,0,1,717.74,257.56Zm-2.36,14.88V260.82h2.12v11.62Z"/><path class="cls-7" d="M721.82,260.82l2.28,6.53c.38,1.06.69,2,.93,3h.07c.27-1,.6-1.92,1-3l2.25-6.53h2.21L726,272.44h-2l-4.42-11.62Z"/><path class="cls-7" d="M733.48,267a3.72,3.72,0,0,0,4,4,7.72,7.72,0,0,0,3.22-.6L741,272a9.33,9.33,0,0,1-3.86.72c-3.58,0-5.72-2.35-5.72-5.86s2.07-6.26,5.45-6.26c3.8,0,4.8,3.33,4.8,5.47a6.87,6.87,0,0,1-.07,1Zm6.19-1.51c0-1.34-.55-3.43-2.93-3.43-2.13,0-3.07,2-3.24,3.43Z"/><path class="cls-7" d="M757.7,272a7.81,7.81,0,0,1-3.34.67c-3.5,0-5.78-2.38-5.78-5.93a5.9,5.9,0,0,1,6.24-6.17,7,7,0,0,1,2.92.6l-.48,1.63a5,5,0,0,0-2.44-.55c-2.67,0-4.11,2-4.11,4.4,0,2.68,1.73,4.34,4,4.34a6,6,0,0,0,2.6-.58Z"/><path class="cls-7" d="M770.54,266.54c0,4.29-3,6.16-5.79,6.16-3.14,0-5.57-2.3-5.57-6,0-3.89,2.55-6.17,5.76-6.17S770.54,263,770.54,266.54Zm-9.22.12c0,2.54,1.46,4.46,3.53,4.46s3.53-1.9,3.53-4.51c0-2-1-4.47-3.48-4.47S761.32,264.45,761.32,266.66Z"/><path class="cls-7" d="M773.2,264c0-1.2,0-2.19-.1-3.15H775l.1,1.87h.07a4,4,0,0,1,3.65-2.13,3.45,3.45,0,0,1,3.29,2.33h0a4.81,4.81,0,0,1,1.3-1.52,4,4,0,0,1,2.57-.81c1.53,0,3.81,1,3.81,5v6.84h-2.06v-6.58c0-2.23-.82-3.57-2.52-3.57a2.73,2.73,0,0,0-2.5,1.92,3.68,3.68,0,0,0-.16,1.05v7.18h-2.07v-7c0-1.85-.81-3.19-2.42-3.19a3.15,3.15,0,0,0-2.79,3.14v7H773.2Z"/><path class="cls-7" d="M793.21,264.62c0-1.49,0-2.69-.09-3.8H795l.1,2h0a4.57,4.57,0,0,1,4.13-2.25c2.8,0,4.92,2.37,4.92,5.9,0,4.18-2.55,6.24-5.28,6.24a4.08,4.08,0,0,1-3.58-1.82h-.05v6.31h-2.09Zm2.09,3.09a4.72,4.72,0,0,0,.1.87,3.25,3.25,0,0,0,3.17,2.47c2.23,0,3.52-1.83,3.52-4.49,0-2.33-1.22-4.32-3.45-4.32a3.36,3.36,0,0,0-3.19,2.61,3.17,3.17,0,0,0-.15.87Z"/><path class="cls-7" d="M809.22,257.56a1.31,1.31,0,0,1-2.61,0,1.28,1.28,0,0,1,1.32-1.32A1.25,1.25,0,0,1,809.22,257.56Zm-2.35,14.88V260.82H809v11.62Z"/><path class="cls-7" d="M812.49,255.4h2.11v17h-2.11Z"/><path class="cls-7" d="M824.58,272.44l-.17-1.46h-.07a4.32,4.32,0,0,1-3.55,1.72,3.3,3.3,0,0,1-3.55-3.33c0-2.81,2.49-4.35,7-4.32v-.24a2.39,2.39,0,0,0-2.64-2.69,5.83,5.83,0,0,0-3,.86l-.48-1.39a7.23,7.23,0,0,1,3.81-1c3.56,0,4.42,2.42,4.42,4.75v4.35a16.79,16.79,0,0,0,.19,2.78Zm-.31-5.93c-2.3-.05-4.92.36-4.92,2.62a1.86,1.86,0,0,0,2,2,2.9,2.9,0,0,0,2.81-1.94,2.31,2.31,0,0,0,.12-.67Z"/><path class="cls-7" d="M832.17,257.49v3.33h3v1.61h-3v6.27c0,1.43.4,2.25,1.58,2.25a4.78,4.78,0,0,0,1.22-.14l.1,1.58a5.14,5.14,0,0,1-1.87.29,2.9,2.9,0,0,1-2.28-.89,4.3,4.3,0,0,1-.82-3v-6.34h-1.8v-1.61h1.8V258Z"/><path class="cls-7" d="M839.92,257.56a1.31,1.31,0,0,1-2.62,0,1.28,1.28,0,0,1,1.32-1.32A1.25,1.25,0,0,1,839.92,257.56Zm-2.35,14.88V260.82h2.11v11.62Z"/><path class="cls-7" d="M853.69,266.54c0,4.29-3,6.16-5.78,6.16-3.14,0-5.57-2.3-5.57-6,0-3.89,2.55-6.17,5.76-6.17S853.69,263,853.69,266.54Zm-9.21.12c0,2.54,1.46,4.46,3.53,4.46s3.52-1.9,3.52-4.51c0-2-1-4.47-3.48-4.47S844.48,264.45,844.48,266.66Z"/><path class="cls-7" d="M856.36,264c0-1.2,0-2.19-.1-3.15h1.87l.12,1.92h0a4.28,4.28,0,0,1,3.84-2.18c1.61,0,4.11,1,4.11,4.94v6.94h-2.12v-6.7c0-1.87-.69-3.43-2.68-3.43a3,3,0,0,0-2.84,2.16,3.19,3.19,0,0,0-.14,1v7h-2.11Z"/><path class="cls-7" d="M875.6,260.82l1.54,5.91c.34,1.29.65,2.49.86,3.69h.08c.26-1.17.65-2.42,1-3.67l1.9-5.93h1.77l1.8,5.81c.43,1.39.77,2.62,1,3.79h.08a35,35,0,0,1,.88-3.76l1.66-5.84h2.09l-3.75,11.62h-1.92l-1.77-5.55a35.5,35.5,0,0,1-1-3.81h-.05a34.61,34.61,0,0,1-1.06,3.84l-1.87,5.52H877l-3.51-11.62Z"/><path class="cls-7" d="M894.78,257.56a1.31,1.31,0,0,1-2.61,0,1.28,1.28,0,0,1,1.32-1.32A1.25,1.25,0,0,1,894.78,257.56Zm-2.35,14.88V260.82h2.11v11.62Z"/><path class="cls-7" d="M900.59,257.49v3.33h3v1.61h-3v6.27c0,1.43.41,2.25,1.58,2.25a4.87,4.87,0,0,0,1.23-.14l.09,1.58a5.06,5.06,0,0,1-1.87.29,2.93,2.93,0,0,1-2.28-.89,4.3,4.3,0,0,1-.81-3v-6.34h-1.81v-1.61h1.81V258Z"/><path class="cls-7" d="M906,255.4h2.11v7.25h0a3.93,3.93,0,0,1,1.51-1.49,4.37,4.37,0,0,1,2.16-.6c1.56,0,4.06,1,4.06,5v6.91h-2.11v-6.67c0-1.88-.7-3.46-2.69-3.46a3,3,0,0,0-2.83,2.11,2.56,2.56,0,0,0-.15,1v7H906Z"/><path class="cls-7" d="M926.94,257.49v3.33h3v1.61h-3v6.27c0,1.43.41,2.25,1.59,2.25a4.78,4.78,0,0,0,1.22-.14l.1,1.58a5.16,5.16,0,0,1-1.88.29,2.93,2.93,0,0,1-2.28-.89,4.3,4.3,0,0,1-.81-3v-6.34h-1.8v-1.61h1.8V258Z"/><path class="cls-7" d="M932.34,255.4h2.11v7.25h0a4,4,0,0,1,1.51-1.49,4.37,4.37,0,0,1,2.16-.6c1.56,0,4.06,1,4.06,5v6.91h-2.11v-6.67c0-1.88-.7-3.46-2.69-3.46a3,3,0,0,0-2.83,2.11,2.56,2.56,0,0,0-.15,1v7h-2.11Z"/><path class="cls-7" d="M946.84,267a3.72,3.72,0,0,0,4,4,7.75,7.75,0,0,0,3.22-.6l.36,1.51a9.39,9.39,0,0,1-3.87.72c-3.57,0-5.71-2.35-5.71-5.86s2.07-6.26,5.45-6.26c3.79,0,4.8,3.33,4.8,5.47a8.79,8.79,0,0,1-.07,1ZM953,265.5c0-1.34-.55-3.43-2.93-3.43-2.13,0-3.07,2-3.24,3.43Z"/><path class="cls-7" d="M962.48,270.28a5.55,5.55,0,0,0,2.79.84c1.53,0,2.26-.77,2.26-1.73s-.61-1.56-2.16-2.14c-2.09-.74-3.08-1.89-3.08-3.28,0-1.88,1.51-3.41,4-3.41a5.74,5.74,0,0,1,2.86.72l-.53,1.53a4.63,4.63,0,0,0-2.38-.67c-1.25,0-1.94.72-1.94,1.59s.69,1.39,2.21,2c2,.76,3.05,1.77,3.05,3.5,0,2-1.59,3.48-4.35,3.48a6.6,6.6,0,0,1-3.26-.79Z"/><path class="cls-7" d="M974.63,257.56a1.31,1.31,0,0,1-2.62,0,1.28,1.28,0,0,1,1.32-1.32A1.25,1.25,0,0,1,974.63,257.56Zm-2.35,14.88V260.82h2.11v11.62Z"/><path class="cls-7" d="M977.89,264c0-1.2,0-2.19-.09-3.15h1.84l.1,1.87h.07a4,4,0,0,1,3.65-2.13,3.44,3.44,0,0,1,3.29,2.33h0a4.78,4.78,0,0,1,1.29-1.52,4,4,0,0,1,2.57-.81c1.54,0,3.82,1,3.82,5v6.84h-2.07v-6.58c0-2.23-.81-3.57-2.52-3.57a2.72,2.72,0,0,0-2.49,1.92,3.35,3.35,0,0,0-.17,1.05v7.18h-2.06v-7c0-1.85-.82-3.19-2.43-3.19a3.11,3.11,0,0,0-2.78,3.14v7h-2.07Z"/><path class="cls-7" d="M997.91,264.62c0-1.49,0-2.69-.1-3.8h1.9l.09,2h.05a4.58,4.58,0,0,1,4.13-2.25c2.81,0,4.92,2.37,4.92,5.9,0,4.18-2.54,6.24-5.28,6.24a4.08,4.08,0,0,1-3.58-1.82h0v6.31h-2.09Zm2.09,3.09a4.74,4.74,0,0,0,.09.87,3.27,3.27,0,0,0,3.17,2.47c2.23,0,3.53-1.83,3.53-4.49,0-2.33-1.22-4.32-3.46-4.32a3.37,3.37,0,0,0-3.19,2.61,3.59,3.59,0,0,0-.14.87Z"/><path class="cls-7" d="M1011.56,255.4h2.12v17h-2.12Z"/><path class="cls-7" d="M1019.58,257.56a1.31,1.31,0,0,1-2.62,0,1.29,1.29,0,0,1,1.32-1.32A1.25,1.25,0,0,1,1019.58,257.56Zm-2.35,14.88V260.82h2.11v11.62Z"/><path class="cls-7" d="M1031.12,272a7.72,7.72,0,0,1-3.33.67c-3.51,0-5.79-2.38-5.79-5.93a5.9,5.9,0,0,1,6.24-6.17,7,7,0,0,1,2.93.6l-.48,1.63a5,5,0,0,0-2.45-.55c-2.66,0-4.1,2-4.1,4.4,0,2.68,1.73,4.34,4,4.34a5.86,5.86,0,0,0,2.59-.58Z"/><path class="cls-7" d="M1036,257.56a1.31,1.31,0,0,1-2.62,0,1.28,1.28,0,0,1,1.32-1.32A1.25,1.25,0,0,1,1036,257.56Zm-2.35,14.88V260.82h2.11v11.62Z"/><path class="cls-7" d="M1041.76,257.49v3.33h3v1.61h-3v6.27c0,1.43.4,2.25,1.58,2.25a4.78,4.78,0,0,0,1.22-.14l.1,1.58a5.14,5.14,0,0,1-1.87.29,2.9,2.9,0,0,1-2.28-.89,4.3,4.3,0,0,1-.82-3v-6.34h-1.8v-1.61h1.8V258Z"/><path class="cls-7" d="M1048.14,260.82l2.54,6.87c.27.77.56,1.68.75,2.37h0c.21-.69.45-1.58.74-2.42l2.3-6.82h2.24l-3.17,8.28c-1.51,4-2.55,6-4,7.28a5.62,5.62,0,0,1-2.59,1.36l-.53-1.77a5.71,5.71,0,0,0,1.85-1,6.44,6.44,0,0,0,1.78-2.36,1.62,1.62,0,0,0,.17-.5,1.75,1.75,0,0,0-.15-.55l-4.3-10.71Z"/><path class="cls-7" d="M1074.28,266.54c0,4.29-3,6.16-5.79,6.16-3.14,0-5.57-2.3-5.57-6,0-3.89,2.55-6.17,5.76-6.17S1074.28,263,1074.28,266.54Zm-9.22.12c0,2.54,1.46,4.46,3.53,4.46s3.53-1.9,3.53-4.51c0-2-1-4.47-3.48-4.47S1065.06,264.45,1065.06,266.66Z"/><path class="cls-7" d="M1077.15,272.44v-10h-1.63v-1.61h1.63v-.55a5.47,5.47,0,0,1,1.35-4.06,4.08,4.08,0,0,1,2.83-1.08,4.83,4.83,0,0,1,1.8.34l-.29,1.63a3.2,3.2,0,0,0-1.34-.26c-1.8,0-2.26,1.58-2.26,3.36v.62h2.81v1.61h-2.81v10Z"/><path class="cls-7" d="M593,300.81a7.72,7.72,0,0,1-3.33.67c-3.51,0-5.79-2.38-5.79-5.93a5.91,5.91,0,0,1,6.24-6.17,7.21,7.21,0,0,1,2.93.6l-.48,1.64a4.87,4.87,0,0,0-2.45-.56c-2.66,0-4.1,2-4.1,4.4,0,2.68,1.73,4.34,4,4.34a5.9,5.9,0,0,0,2.59-.58Z"/><path class="cls-7" d="M605.87,295.34c0,4.29-3,6.16-5.78,6.16-3.15,0-5.57-2.3-5.57-6,0-3.89,2.54-6.17,5.76-6.17S605.87,291.78,605.87,295.34Zm-9.21.12c0,2.54,1.46,4.46,3.52,4.46s3.53-1.9,3.53-4.51c0-2-1-4.47-3.48-4.47S596.66,293.25,596.66,295.46Z"/><path class="cls-7" d="M608.54,292.77c0-1.2,0-2.19-.1-3.15h1.85l.09,1.88h.08a4,4,0,0,1,3.64-2.14,3.43,3.43,0,0,1,3.29,2.33h.05a4.92,4.92,0,0,1,1.3-1.52,4,4,0,0,1,2.57-.81c1.53,0,3.81,1,3.81,5v6.84h-2.06v-6.58c0-2.23-.82-3.57-2.52-3.57A2.74,2.74,0,0,0,618,293a3.66,3.66,0,0,0-.17,1.05v7.18h-2.06v-7c0-1.85-.82-3.19-2.43-3.19a3.15,3.15,0,0,0-2.78,3.14v7h-2.06Z"/><path class="cls-7" d="M628.55,293.42c0-1.49,0-2.69-.09-3.8h1.89l.1,2h0a4.55,4.55,0,0,1,4.12-2.26c2.81,0,4.92,2.38,4.92,5.9,0,4.18-2.54,6.24-5.28,6.24a4.06,4.06,0,0,1-3.57-1.82h-.05V306h-2.09Zm2.09,3.09a4.72,4.72,0,0,0,.1.87,3.25,3.25,0,0,0,3.16,2.47c2.24,0,3.53-1.83,3.53-4.49,0-2.33-1.22-4.32-3.45-4.32a3.38,3.38,0,0,0-3.2,2.62,3.44,3.44,0,0,0-.14.86Z"/><path class="cls-7" d="M652.72,295.34c0,4.29-3,6.16-5.78,6.16-3.15,0-5.57-2.3-5.57-6,0-3.89,2.54-6.17,5.76-6.17S652.72,291.78,652.72,295.34Zm-9.22.12c0,2.54,1.47,4.46,3.53,4.46s3.53-1.9,3.53-4.51c0-2-1-4.47-3.48-4.47S643.5,293.25,643.5,295.46Z"/><path class="cls-7" d="M655.38,292.77c0-1.2,0-2.19-.09-3.15h1.87l.12,1.92h.05a4.27,4.27,0,0,1,3.84-2.18c1.61,0,4.1,1,4.1,4.94v6.94h-2.11v-6.7c0-1.87-.7-3.43-2.69-3.43a3.08,3.08,0,0,0-3,3.15v7h-2.12Z"/><path class="cls-7" d="M669.88,295.82a3.72,3.72,0,0,0,4,4,7.72,7.72,0,0,0,3.22-.6l.36,1.51a9.33,9.33,0,0,1-3.86.72c-3.58,0-5.72-2.35-5.72-5.86s2.07-6.26,5.45-6.26c3.79,0,4.8,3.34,4.8,5.47a9.22,9.22,0,0,1-.07,1Zm6.19-1.52c0-1.34-.55-3.43-2.93-3.43-2.13,0-3.07,2-3.24,3.43Z"/><path class="cls-7" d="M680.73,292.77c0-1.2,0-2.19-.1-3.15h1.87l.12,1.92h0a4.28,4.28,0,0,1,3.84-2.18c1.61,0,4.1,1,4.1,4.94v6.94H688.5v-6.7c0-1.87-.69-3.43-2.69-3.43a3,3,0,0,0-2.83,2.16,3.28,3.28,0,0,0-.14,1v7h-2.11Z"/><path class="cls-7" d="M696.49,286.29v3.33h3v1.61h-3v6.27c0,1.44.41,2.25,1.59,2.25a4.78,4.78,0,0,0,1.22-.14l.1,1.58a5.14,5.14,0,0,1-1.87.29,2.9,2.9,0,0,1-2.28-.89,4.28,4.28,0,0,1-.82-3v-6.34h-1.8v-1.61h1.8v-2.78Z"/><path class="cls-7" d="M706.67,294v1.56h-5.93V294Z"/><path class="cls-7" d="M709.05,301.24c0-.79.09-2,.09-3v-14h2.09v7.3h0a4.32,4.32,0,0,1,4-2.14c2.88,0,4.92,2.4,4.89,5.93,0,4.15-2.61,6.21-5.2,6.21a4.13,4.13,0,0,1-3.89-2.18H711l-.1,1.92Zm2.18-4.66a3.77,3.77,0,0,0,.1.77,3.24,3.24,0,0,0,3.16,2.47c2.21,0,3.53-1.8,3.53-4.46,0-2.33-1.2-4.32-3.45-4.32a3.37,3.37,0,0,0-3.22,2.59,4.06,4.06,0,0,0-.12.87Z"/><path class="cls-7" d="M729.23,301.24l-.17-1.46H729a4.33,4.33,0,0,1-3.55,1.72,3.31,3.31,0,0,1-3.56-3.33c0-2.81,2.5-4.35,7-4.32v-.24a2.39,2.39,0,0,0-2.64-2.69,5.83,5.83,0,0,0-3,.86l-.49-1.39a7.3,7.3,0,0,1,3.82-1c3.55,0,4.42,2.42,4.42,4.75v4.35a16.79,16.79,0,0,0,.19,2.78Zm-.31-5.93c-2.31-.05-4.92.36-4.92,2.62a1.86,1.86,0,0,0,2,2A2.9,2.9,0,0,0,728.8,298a2.31,2.31,0,0,0,.12-.67Z"/><path class="cls-7" d="M734.08,299.08a5.51,5.51,0,0,0,2.78.84c1.54,0,2.26-.77,2.26-1.73s-.6-1.56-2.16-2.13c-2.09-.75-3.07-1.9-3.07-3.29,0-1.87,1.51-3.41,4-3.41a5.85,5.85,0,0,1,2.86.72l-.53,1.54a4.45,4.45,0,0,0-2.37-.68c-1.25,0-2,.72-2,1.59s.7,1.39,2.21,2c2,.76,3,1.77,3,3.5,0,2-1.59,3.48-4.35,3.48a6.63,6.63,0,0,1-3.26-.79Z"/><path class="cls-7" d="M745.05,295.82a3.72,3.72,0,0,0,4,4,7.79,7.79,0,0,0,3.22-.6l.36,1.51a9.39,9.39,0,0,1-3.87.72c-3.57,0-5.71-2.35-5.71-5.86s2.06-6.26,5.45-6.26c3.79,0,4.8,3.34,4.8,5.47a9.22,9.22,0,0,1-.07,1Zm6.19-1.52c0-1.34-.55-3.43-2.93-3.43-2.14,0-3.07,2-3.24,3.43Z"/><path class="cls-7" d="M765.93,284.2v14c0,1,0,2.21.09,3h-1.9l-.09-2h0a4.29,4.29,0,0,1-4,2.28c-2.81,0-5-2.37-5-5.9,0-3.86,2.38-6.24,5.21-6.24a3.89,3.89,0,0,1,3.51,1.78h0V284.2Zm-2.12,10.15a3.9,3.9,0,0,0-.09-.89,3.11,3.11,0,0,0-3.05-2.44c-2.18,0-3.48,1.92-3.48,4.48,0,2.36,1.15,4.3,3.43,4.3a3.18,3.18,0,0,0,3.1-2.52,3.8,3.8,0,0,0,.09-.91Z"/><path class="cls-7" d="M781,301.24l-.17-1.46h-.07a4.33,4.33,0,0,1-3.55,1.72,3.31,3.31,0,0,1-3.56-3.33c0-2.81,2.5-4.35,7-4.32v-.24a2.39,2.39,0,0,0-2.64-2.69,5.89,5.89,0,0,0-3,.86l-.48-1.39a7.3,7.3,0,0,1,3.82-1c3.55,0,4.42,2.42,4.42,4.75v4.35a16.79,16.79,0,0,0,.19,2.78Zm-.31-5.93c-2.31-.05-4.92.36-4.92,2.62a1.86,1.86,0,0,0,2,2,2.9,2.9,0,0,0,2.81-1.94,2.31,2.31,0,0,0,.12-.67Z"/><path class="cls-7" d="M786.08,293.25c0-1.37,0-2.55-.09-3.63h1.85l.07,2.28H788a3.48,3.48,0,0,1,3.22-2.54,2.2,2.2,0,0,1,.6.07v2a3.74,3.74,0,0,0-.72-.07,3,3,0,0,0-2.83,2.71,5.81,5.81,0,0,0-.1,1v6.19h-2.09Z"/><path class="cls-7" d="M802,300.81a7.72,7.72,0,0,1-3.33.67c-3.51,0-5.79-2.38-5.79-5.93a5.91,5.91,0,0,1,6.24-6.17,7.21,7.21,0,0,1,2.93.6l-.48,1.64a4.87,4.87,0,0,0-2.45-.56c-2.66,0-4.1,2-4.1,4.4,0,2.68,1.73,4.34,4,4.34a5.9,5.9,0,0,0,2.59-.58Z"/><path class="cls-7" d="M804.44,284.2h2.12v7.25h0a4,4,0,0,1,1.52-1.49,4.31,4.31,0,0,1,2.16-.6c1.56,0,4.05,1,4.05,5v6.91h-2.11v-6.67c0-1.87-.7-3.46-2.69-3.46a3,3,0,0,0-2.83,2.11,2.57,2.57,0,0,0-.14,1v7h-2.12Z"/><path class="cls-7" d="M820.12,286.36a1.31,1.31,0,0,1-2.62,0,1.29,1.29,0,0,1,1.32-1.32A1.26,1.26,0,0,1,820.12,286.36Zm-2.36,14.88V289.62h2.12v11.62Z"/><path class="cls-7" d="M825.92,286.29v3.33h3v1.61h-3v6.27c0,1.44.41,2.25,1.59,2.25a4.78,4.78,0,0,0,1.22-.14l.1,1.58a5.14,5.14,0,0,1-1.87.29,2.9,2.9,0,0,1-2.28-.89,4.28,4.28,0,0,1-.82-3v-6.34h-1.8v-1.61h1.8v-2.78Z"/><path class="cls-7" d="M832.36,295.82a3.72,3.72,0,0,0,4,4,7.75,7.75,0,0,0,3.22-.6l.36,1.51a9.39,9.39,0,0,1-3.87.72c-3.57,0-5.71-2.35-5.71-5.86s2.07-6.26,5.45-6.26c3.79,0,4.8,3.34,4.8,5.47a9.22,9.22,0,0,1-.07,1Zm6.19-1.52c0-1.34-.55-3.43-2.93-3.43-2.13,0-3.07,2-3.24,3.43Z"/><path class="cls-7" d="M851.49,300.81a7.81,7.81,0,0,1-3.34.67c-3.51,0-5.79-2.38-5.79-5.93a5.91,5.91,0,0,1,6.24-6.17,7.17,7.17,0,0,1,2.93.6l-.48,1.64a4.84,4.84,0,0,0-2.45-.56c-2.66,0-4.1,2-4.1,4.4,0,2.68,1.73,4.34,4,4.34a5.86,5.86,0,0,0,2.59-.58Z"/><path class="cls-7" d="M856.81,286.29v3.33h3v1.61h-3v6.27c0,1.44.41,2.25,1.59,2.25a4.78,4.78,0,0,0,1.22-.14l.1,1.58a5.16,5.16,0,0,1-1.88.29,2.93,2.93,0,0,1-2.28-.89,4.28,4.28,0,0,1-.81-3v-6.34H853v-1.61h1.8v-2.78Z"/><path class="cls-7" d="M871.93,298.07c0,1.2,0,2.26.1,3.17h-1.87l-.12-1.9h0a4.37,4.37,0,0,1-3.84,2.16c-1.83,0-4-1-4-5.08v-6.8h2.11v6.44c0,2.2.67,3.69,2.59,3.69a3,3,0,0,0,3-3v-7.13h2.11Z"/><path class="cls-7" d="M875.43,293.25c0-1.37,0-2.55-.09-3.63h1.85l.07,2.28h.09a3.49,3.49,0,0,1,3.22-2.54,2.2,2.2,0,0,1,.6.07v2a3.65,3.65,0,0,0-.72-.07,3,3,0,0,0-2.83,2.71,5.81,5.81,0,0,0-.1,1v6.19h-2.09Z"/><path class="cls-7" d="M884.22,295.82a3.72,3.72,0,0,0,4,4,7.75,7.75,0,0,0,3.22-.6l.36,1.51a9.33,9.33,0,0,1-3.86.72c-3.58,0-5.72-2.35-5.72-5.86s2.07-6.26,5.45-6.26c3.79,0,4.8,3.34,4.8,5.47a9.22,9.22,0,0,1-.07,1Zm6.19-1.52c0-1.34-.55-3.43-2.93-3.43-2.13,0-3.07,2-3.24,3.43Z"/><path class="cls-7" d="M906.59,301.24l-.17-1.46h-.07a4.34,4.34,0,0,1-3.56,1.72,3.3,3.3,0,0,1-3.55-3.33c0-2.81,2.5-4.35,7-4.32v-.24a2.4,2.4,0,0,0-2.64-2.69,5.89,5.89,0,0,0-3,.86l-.48-1.39a7.24,7.24,0,0,1,3.82-1c3.55,0,4.41,2.42,4.41,4.75v4.35a15.71,15.71,0,0,0,.2,2.78Zm-.32-5.93c-2.3-.05-4.92.36-4.92,2.62a1.87,1.87,0,0,0,2,2,2.88,2.88,0,0,0,2.8-1.94,2,2,0,0,0,.12-.67Z"/><path class="cls-7" d="M911.72,292.77c0-1.2,0-2.19-.1-3.15h1.88l.12,1.92h0a4.26,4.26,0,0,1,3.84-2.18c1.6,0,4.1,1,4.1,4.94v6.94H919.5v-6.7c0-1.87-.7-3.43-2.69-3.43a3.12,3.12,0,0,0-3,3.15v7h-2.11Z"/><path class="cls-7" d="M935.07,284.2v14c0,1,0,2.21.1,3h-1.9l-.09-2h0a4.29,4.29,0,0,1-4,2.28c-2.81,0-5-2.37-5-5.9,0-3.86,2.38-6.24,5.21-6.24a3.86,3.86,0,0,1,3.5,1.78H933V284.2ZM933,294.35a3.9,3.9,0,0,0-.09-.89,3.12,3.12,0,0,0-3-2.44c-2.19,0-3.48,1.92-3.48,4.48,0,2.36,1.15,4.3,3.43,4.3a3.18,3.18,0,0,0,3.1-2.52,3.8,3.8,0,0,0,.09-.91Z"/><path class="cls-7" d="M943.67,293.42c0-1.49,0-2.69-.1-3.8h1.9l.09,2h.05a4.56,4.56,0,0,1,4.13-2.26c2.81,0,4.92,2.38,4.92,5.9,0,4.18-2.55,6.24-5.28,6.24a4.08,4.08,0,0,1-3.58-1.82h0V306h-2.08Zm2.08,3.09a4.72,4.72,0,0,0,.1.87,3.26,3.26,0,0,0,3.17,2.47c2.23,0,3.53-1.83,3.53-4.49,0-2.33-1.23-4.32-3.46-4.32a3.37,3.37,0,0,0-3.19,2.62,3.44,3.44,0,0,0-.15.86Z"/><path class="cls-7" d="M967.83,295.34c0,4.29-3,6.16-5.78,6.16-3.15,0-5.57-2.3-5.57-6,0-3.89,2.54-6.17,5.76-6.17S967.83,291.78,967.83,295.34Zm-9.21.12c0,2.54,1.46,4.46,3.52,4.46s3.53-1.9,3.53-4.51c0-2-1-4.47-3.48-4.47S958.62,293.25,958.62,295.46Z"/><path class="cls-7" d="M971.17,289.62l1.53,5.91c.34,1.29.65,2.49.87,3.69h.07c.26-1.17.65-2.42,1-3.67l1.9-5.93h1.77l1.81,5.81c.43,1.39.76,2.62,1,3.79h.07a33,33,0,0,1,.89-3.76l1.65-5.84h2.09l-3.74,11.62h-1.92l-1.78-5.54a38.94,38.94,0,0,1-1-3.82h0a34.61,34.61,0,0,1-1.06,3.84l-1.87,5.52h-1.92L969,289.62Z"/><path class="cls-7" d="M988.93,295.82a3.72,3.72,0,0,0,4,4,7.72,7.72,0,0,0,3.22-.6l.36,1.51a9.33,9.33,0,0,1-3.86.72c-3.58,0-5.72-2.35-5.72-5.86s2.07-6.26,5.45-6.26c3.79,0,4.8,3.34,4.8,5.47a9.22,9.22,0,0,1-.07,1Zm6.19-1.52c0-1.34-.55-3.43-2.93-3.43-2.13,0-3.07,2-3.24,3.43Z"/><path class="cls-7" d="M999.78,293.25c0-1.37,0-2.55-.1-3.63h1.85l.07,2.28h.1a3.47,3.47,0,0,1,3.21-2.54,2.2,2.2,0,0,1,.6.07v2a3.65,3.65,0,0,0-.72-.07,3,3,0,0,0-2.83,2.71,5.86,5.86,0,0,0-.09,1v6.19h-2.09Z"/><path class="cls-7" d="M1008.56,301.24v-10h-1.63v-1.61h1.63v-.55a5.51,5.51,0,0,1,1.34-4.06,4.1,4.1,0,0,1,2.84-1.08,4.87,4.87,0,0,1,1.8.34l-.29,1.63a3.25,3.25,0,0,0-1.35-.26c-1.8,0-2.25,1.58-2.25,3.36v.62h2.81v1.61h-2.81v10Z"/><path class="cls-7" d="M1025.07,298.07c0,1.2,0,2.26.1,3.17h-1.87l-.12-1.9h0a4.37,4.37,0,0,1-3.84,2.16c-1.83,0-4-1-4-5.08v-6.8h2.11v6.44c0,2.2.67,3.69,2.59,3.69a3,3,0,0,0,3-3v-7.13h2.11Z"/><path class="cls-7" d="M1028.58,284.2h2.11v17h-2.11Z"/><path class="cls-7" d="M1045.76,301.24l-.17-1.46h-.07a4.33,4.33,0,0,1-3.55,1.72,3.3,3.3,0,0,1-3.55-3.33c0-2.81,2.49-4.35,7-4.32v-.24a2.39,2.39,0,0,0-2.64-2.69,5.83,5.83,0,0,0-3,.86l-.49-1.39a7.3,7.3,0,0,1,3.82-1c3.55,0,4.42,2.42,4.42,4.75v4.35a16.79,16.79,0,0,0,.19,2.78Zm-.31-5.93c-2.31-.05-4.92.36-4.92,2.62a1.86,1.86,0,0,0,2,2,2.9,2.9,0,0,0,2.81-1.94,2.31,2.31,0,0,0,.12-.67Z"/><path class="cls-7" d="M1050.61,299.08a5.47,5.47,0,0,0,2.78.84c1.54,0,2.26-.77,2.26-1.73s-.6-1.56-2.16-2.13c-2.09-.75-3.07-1.9-3.07-3.29,0-1.87,1.51-3.41,4-3.41a5.85,5.85,0,0,1,2.86.72l-.53,1.54a4.48,4.48,0,0,0-2.37-.68c-1.25,0-2,.72-2,1.59s.7,1.39,2.21,2c2,.76,3,1.77,3,3.5,0,2-1.59,3.48-4.35,3.48a6.6,6.6,0,0,1-3.26-.79Z"/><path class="cls-7" d="M1061.17,289.62l2.54,6.87c.26.77.55,1.68.75,2.37h0c.22-.69.46-1.58.75-2.42l2.3-6.82h2.23l-3.16,8.28c-1.52,4-2.55,6-4,7.28a5.62,5.62,0,0,1-2.59,1.36l-.53-1.77a5.81,5.81,0,0,0,1.85-1,6.43,6.43,0,0,0,1.77-2.36,1.39,1.39,0,0,0,.17-.5,2,2,0,0,0-.14-.55l-4.3-10.71Z"/><path class="cls-7" d="M1071.7,292.77c0-1.2,0-2.19-.09-3.15h1.87l.12,1.92h.05a4.27,4.27,0,0,1,3.84-2.18c1.6,0,4.1,1,4.1,4.94v6.94h-2.11v-6.7c0-1.87-.7-3.43-2.69-3.43a3.12,3.12,0,0,0-3,3.15v7h-2.11Z"/><path class="cls-7" d="M1093.3,300.81a7.72,7.72,0,0,1-3.33.67c-3.51,0-5.79-2.38-5.79-5.93a5.91,5.91,0,0,1,6.24-6.17,7.21,7.21,0,0,1,2.93.6l-.48,1.64a4.87,4.87,0,0,0-2.45-.56c-2.66,0-4.1,2-4.1,4.4,0,2.68,1.73,4.34,4,4.34a5.9,5.9,0,0,0,2.59-.58Z"/><path class="cls-7" d="M584.75,322.22c0-1.49,0-2.69-.09-3.8h1.89l.1,2h.05a4.55,4.55,0,0,1,4.12-2.26c2.81,0,4.93,2.38,4.93,5.9,0,4.18-2.55,6.24-5.29,6.24a4.06,4.06,0,0,1-3.57-1.82h0v6.31h-2.09Zm2.09,3.09a4.72,4.72,0,0,0,.1.87,3.25,3.25,0,0,0,3.16,2.47c2.24,0,3.53-1.83,3.53-4.49,0-2.33-1.22-4.32-3.45-4.32a3.38,3.38,0,0,0-3.2,2.62,3.44,3.44,0,0,0-.14.86Z"/><path class="cls-7" d="M598.41,322.05c0-1.37,0-2.55-.1-3.63h1.85l.07,2.28h.1a3.48,3.48,0,0,1,3.21-2.54,2.2,2.2,0,0,1,.6.07v2a3,3,0,0,0-.72-.07,3,3,0,0,0-2.83,2.71,5.86,5.86,0,0,0-.09,1V330h-2.09Z"/><path class="cls-7" d="M616.53,324.14c0,4.29-3,6.16-5.79,6.16-3.14,0-5.57-2.3-5.57-6,0-3.89,2.55-6.17,5.77-6.17S616.53,320.58,616.53,324.14Zm-9.22.12c0,2.54,1.47,4.46,3.53,4.46s3.53-1.9,3.53-4.51c0-2-1-4.47-3.48-4.47S607.31,322.05,607.31,324.26Z"/><path class="cls-7" d="M629.2,318.42c-.05.84-.1,1.78-.1,3.2v6.74c0,2.66-.52,4.3-1.65,5.3a6.15,6.15,0,0,1-4.23,1.4,7.51,7.51,0,0,1-3.86-1l.53-1.61a6.5,6.5,0,0,0,3.4.91c2.17,0,3.75-1.13,3.75-4.06v-1.29h0a4.15,4.15,0,0,1-3.7,1.94c-2.87,0-4.94-2.45-4.94-5.66,0-3.94,2.57-6.17,5.23-6.17a3.87,3.87,0,0,1,3.63,2h0l.1-1.75ZM627,323a3.15,3.15,0,0,0-.12-1,3,3,0,0,0-3-2.23c-2,0-3.45,1.7-3.45,4.39,0,2.28,1.15,4.17,3.43,4.17a3.09,3.09,0,0,0,2.93-2.16,3.63,3.63,0,0,0,.17-1.12Z"/><path class="cls-7" d="M632.46,322.05c0-1.37,0-2.55-.09-3.63h1.84l.08,2.28h.09a3.48,3.48,0,0,1,3.22-2.54,2.2,2.2,0,0,1,.6.07v2a3.08,3.08,0,0,0-.72-.07,3,3,0,0,0-2.83,2.71,5.81,5.81,0,0,0-.1,1V330h-2.09Z"/><path class="cls-7" d="M646.62,330l-.16-1.46h-.08a4.31,4.31,0,0,1-3.55,1.72,3.3,3.3,0,0,1-3.55-3.33c0-2.81,2.49-4.35,7-4.32v-.24a2.39,2.39,0,0,0-2.64-2.69,5.76,5.76,0,0,0-3,.86l-.48-1.39a7.23,7.23,0,0,1,3.81-1c3.56,0,4.42,2.42,4.42,4.75v4.35a16.79,16.79,0,0,0,.19,2.78Zm-.31-5.93c-2.3-.05-4.92.36-4.92,2.62a1.86,1.86,0,0,0,2,2,2.88,2.88,0,0,0,2.81-1.94,2.31,2.31,0,0,0,.12-.67Z"/><path class="cls-7" d="M651.76,321.57c0-1.2,0-2.19-.1-3.15h1.85l.1,1.87h.07a4,4,0,0,1,3.65-2.13,3.45,3.45,0,0,1,3.29,2.33h0A4.81,4.81,0,0,1,662,319a4,4,0,0,1,2.57-.81c1.53,0,3.81,1,3.81,5V330h-2.06v-6.58c0-2.23-.82-3.57-2.52-3.57a2.74,2.74,0,0,0-2.5,1.92,3.66,3.66,0,0,0-.17,1.05V330H659v-7c0-1.85-.82-3.19-2.42-3.19a3.15,3.15,0,0,0-2.79,3.14v7h-2.06Z"/><path class="cls-7" d="M671.77,321.57c0-1.2,0-2.19-.09-3.15h1.85l.09,1.87h.07a4,4,0,0,1,3.65-2.13,3.43,3.43,0,0,1,3.29,2.33h0A4.78,4.78,0,0,1,682,319a4,4,0,0,1,2.57-.81c1.54,0,3.82,1,3.82,5V330h-2.07v-6.58c0-2.23-.81-3.57-2.52-3.57a2.73,2.73,0,0,0-2.49,1.92,3.35,3.35,0,0,0-.17,1.05V330h-2.06v-7c0-1.85-.82-3.19-2.43-3.19a3.15,3.15,0,0,0-2.78,3.14v7h-2.07Z"/><path class="cls-7" d="M694.14,315.16a1.31,1.31,0,0,1-2.61,0,1.29,1.29,0,0,1,1.32-1.32A1.25,1.25,0,0,1,694.14,315.16ZM691.79,330V318.42h2.11V330Z"/><path class="cls-7" d="M697.41,321.57c0-1.2,0-2.19-.1-3.15h1.87l.12,1.92h.05a4.28,4.28,0,0,1,3.84-2.18c1.61,0,4.1,1,4.1,4.94V330h-2.11v-6.7c0-1.87-.69-3.43-2.69-3.43a3,3,0,0,0-2.83,2.16,3.24,3.24,0,0,0-.14,1v7h-2.11Z"/><path class="cls-7" d="M720.73,318.42c0,.84-.09,1.78-.09,3.2v6.74c0,2.66-.53,4.3-1.66,5.3a6.14,6.14,0,0,1-4.22,1.4,7.58,7.58,0,0,1-3.87-1l.53-1.61a6.56,6.56,0,0,0,3.41.91c2.16,0,3.74-1.13,3.74-4.06v-1.29h0a4.15,4.15,0,0,1-3.7,1.94c-2.88,0-5-2.45-5-5.66,0-3.94,2.57-6.17,5.24-6.17a3.86,3.86,0,0,1,3.62,2h0l.1-1.75ZM718.55,323a2.87,2.87,0,0,0-.12-1,3,3,0,0,0-2.95-2.23c-2,0-3.46,1.7-3.46,4.39,0,2.28,1.15,4.17,3.43,4.17a3.07,3.07,0,0,0,2.93-2.16,3.63,3.63,0,0,0,.17-1.12Z"/><path class="cls-7" d="M729.23,322.22c0-1.49-.05-2.69-.1-3.8H731l.09,2h0a4.58,4.58,0,0,1,4.13-2.26c2.81,0,4.92,2.38,4.92,5.9,0,4.18-2.54,6.24-5.28,6.24a4.06,4.06,0,0,1-3.57-1.82h0v6.31h-2.09Zm2.09,3.09a5.81,5.81,0,0,0,.09.87,3.27,3.27,0,0,0,3.17,2.47c2.23,0,3.53-1.83,3.53-4.49,0-2.33-1.22-4.32-3.46-4.32a3.37,3.37,0,0,0-3.19,2.62,3.44,3.44,0,0,0-.14.86Z"/><path class="cls-7" d="M749.32,330l-.17-1.46h-.07a4.34,4.34,0,0,1-3.56,1.72A3.3,3.3,0,0,1,742,327c0-2.81,2.5-4.35,7-4.32v-.24a2.4,2.4,0,0,0-2.64-2.69,5.8,5.8,0,0,0-3,.86l-.48-1.39a7.24,7.24,0,0,1,3.82-1c3.55,0,4.41,2.42,4.41,4.75v4.35a15.71,15.71,0,0,0,.2,2.78Zm-.32-5.93c-2.3-.05-4.92.36-4.92,2.62a1.87,1.87,0,0,0,2,2,2.88,2.88,0,0,0,2.8-1.94,2,2,0,0,0,.12-.67Z"/><path class="cls-7" d="M756.9,315.09v3.33h3V320h-3v6.27c0,1.44.41,2.25,1.58,2.25a4.87,4.87,0,0,0,1.23-.14l.09,1.58a5.06,5.06,0,0,1-1.87.29,2.93,2.93,0,0,1-2.28-.89,4.28,4.28,0,0,1-.81-3V320H753v-1.61h1.8v-2.78Z"/><path class="cls-7" d="M764.84,315.09v3.33h3V320h-3v6.27c0,1.44.41,2.25,1.59,2.25a4.78,4.78,0,0,0,1.22-.14l.1,1.58a5.14,5.14,0,0,1-1.87.29,2.94,2.94,0,0,1-2.29-.89,4.33,4.33,0,0,1-.81-3V320H761v-1.61h1.8v-2.78Z"/><path class="cls-7" d="M771.28,324.62a3.72,3.72,0,0,0,4,4,7.79,7.79,0,0,0,3.22-.6l.36,1.51a9.39,9.39,0,0,1-3.87.72c-3.58,0-5.71-2.35-5.71-5.86s2.06-6.26,5.45-6.26c3.79,0,4.8,3.34,4.8,5.47a9.22,9.22,0,0,1-.07,1Zm6.19-1.52c0-1.34-.55-3.43-2.93-3.43-2.14,0-3.07,2-3.24,3.43Z"/><path class="cls-7" d="M782.12,322.05c0-1.37,0-2.55-.09-3.63h1.84l.08,2.28H784a3.48,3.48,0,0,1,3.22-2.54,2.2,2.2,0,0,1,.6.07v2a3.08,3.08,0,0,0-.72-.07,3,3,0,0,0-2.83,2.71,5.81,5.81,0,0,0-.1,1V330h-2.09Z"/><path class="cls-7" d="M790.07,321.57c0-1.2,0-2.19-.1-3.15h1.87l.12,1.92h0a4.28,4.28,0,0,1,3.84-2.18c1.61,0,4.1,1,4.1,4.94V330h-2.11v-6.7c0-1.87-.69-3.43-2.69-3.43a3,3,0,0,0-2.83,2.16,3.24,3.24,0,0,0-.14,1v7h-2.11Z"/><path class="cls-7" d="M803.1,327.88a5.51,5.51,0,0,0,2.78.84c1.54,0,2.26-.77,2.26-1.73s-.6-1.56-2.16-2.13c-2.09-.75-3.07-1.9-3.07-3.29,0-1.87,1.51-3.41,4-3.41a5.85,5.85,0,0,1,2.86.72l-.53,1.54a4.45,4.45,0,0,0-2.37-.68c-1.25,0-2,.72-2,1.59s.7,1.39,2.21,2c2,.76,3,1.77,3,3.5,0,2-1.59,3.48-4.35,3.48a6.63,6.63,0,0,1-3.26-.79Z"/><path class="cls-7" d="M812.12,328.79a1.42,1.42,0,0,1,1.44-1.51,1.51,1.51,0,1,1-1.44,1.51Z"/><g id="Layer_2-2" data-name="Layer 2"><g id="Layer_1-2-2" data-name="Layer 1-2"><g id="Layer_1-2-2-2" data-name="Layer 1-2-2"><polyline class="cls-8" points="44.96 291.49 76.22 224.09 107.48 291.49"/><path class="cls-8" d="M79.93,291.52l-8.54-20.41Z"/><line class="cls-8" x1="130.2" y1="221.47" x2="130.2" y2="273.56"/><polyline class="cls-8" points="130.2 281.11 130.2 289.64 164.42 289.64"/><line class="cls-8" x1="168.76" y1="223.07" x2="201.18" y2="223.07"/><line class="cls-8" x1="204.76" y1="223.07" x2="211.14" y2="223.07"/><line class="cls-8" x1="189.44" y1="223.07" x2="189.44" y2="292.51"/><polyline class="cls-8" points="255.65 224.82 225.77 224.82 225.77 266.44"/><line class="cls-9" x1="233.94" y1="270.52" x2="222.88" y2="270.52"/><polyline class="cls-8" points="225.85 269.52 225.85 290.76 258.26 290.76"/><path class="cls-8" d="M266.24,249.52V224c1.3-.24,17.54-3,28.42,8.51a29.53,29.53,0,0,1,7.66,17,20.25,20.25,0,0,1-3.08,13.32c-5.29,8-14.53,8.86-15.66,8.94H266.24"/><line class="cls-8" x1="304.7" y1="292.07" x2="286.85" y2="271.2"/><line class="cls-8" x1="323.74" y1="223.75" x2="323.74" y2="291.83"/><path class="cls-8" d="M343,243.52c0-3.74,8.86-18.65,29.28-18.55,19.81.09,30.88,13,31.83,30.47,1,18.48-11.19,35.23-32.17,35.23a43.43,43.43,0,0,1-19.07-4.61"/><polyline class="cls-8" points="435.56 293.75 435.56 228.39 445.27 245.24"/><polyline class="cls-8" points="465.69 268.13 475.39 284.21 475.39 221.83"/></g><line class="cls-9" x1="220.71" y1="308.71" x2="220.71" y2="323.58"/><polyline class="cls-9" points="220.71 325.74 220.71 328.17 233.48 328.17"/><polyline class="cls-9" points="239.24 328.71 248.14 310.36 257.05 328.71"/><path class="cls-9" d="M264.47,329.16l.12-19.65,3.23,4.85"/><polyline class="cls-9" points="274.61 321.2 277.83 325.93 277.83 307.6"/><path class="cls-9" d="M298.72,310.3c-3.35-2.26-7.42-2.54-10.21-.68-3.06,2.06-3.26,6.18-3.4,8.09-.22,3.11.52,7.33,2.81,9.1a9.28,9.28,0,0,0,3.51,1.57,6.8,6.8,0,0,0,1,.11"/><path class="cls-9" d="M294.32,328.52h.23c.24,0,.48-.08.72-.13a8.09,8.09,0,0,0,2.41-1,5.59,5.59,0,0,0,2-2.76v-3.75h-4.37"/><line class="cls-9" x1="499.75" y1="208.93" x2="502.19" y2="208.93"/><line class="cls-9" x1="485.98" y1="208.93" x2="498.38" y2="208.93"/><line class="cls-9" x1="493.89" y1="208.93" x2="493.89" y2="226.51"/><path class="cls-9" d="M508.77,226.52V210.23l8,8.51"/><path class="cls-9" d="M517.11,215.82l4.77-5.59v16.29"/></g></g></g></g></svg>
